<?xml version="1.0" encoding="UTF-8"?>
<svg width="90px" height="70px" viewBox="0 0 90 70" version="1.1" xmlns="http://www.w3.org/2000/svg" xmlns:xlink="http://www.w3.org/1999/xlink">
    <!-- Generator: Sketch 49.1 (51147) - http://www.bohemiancoding.com/sketch -->
    <title>icon_3</title>
    <desc>Created with Sketch.</desc>
    <defs></defs>
    <g id="Page-1" stroke="none" stroke-width="1" fill="none" fill-rule="evenodd">
        <g id="Taager_Dark" transform="translate(-241.000000, -2244.000000)" fill-rule="nonzero">
            <g id="icon_3" transform="translate(241.000000, 2244.000000)">
                <polygon id="XMLID_98_" fill="#E6FBFA" points="87.0262582 38.7175141 74.0284464 38.7175141 69.8730853 42.3559322 69.3610503 50.4435028 71.7045952 54.8728814 87.5382932 54.8728814"></polygon>
                <ellipse id="XMLID_97_" fill="#010D19" cx="5.82932166" cy="50.700565" rx="4.29321663" ry="3.91525424"></ellipse>
                <polygon id="XMLID_96_" fill="#29B6AB" points="80.428884 20.4463277 71.0153173 5.51694915 67.8052516 6.62429379 64.9693654 1.16666667 33.5973742 21.039548 80.2713348 22.799435"></polygon>
                <ellipse id="XMLID_95_" fill="#010D19" cx="22.726477" cy="40.9322034" rx="4.29321663" ry="4.31073446"></ellipse>
                <ellipse id="XMLID_94_" fill="#010D19" cx="12.0722101" cy="30.7485876" rx="4.80525164" ry="4.82485876"></ellipse>
                <ellipse id="XMLID_93_" fill="#010D19" cx="19.083151" cy="60.4887006" rx="4.54923414" ry="4.56779661"></ellipse>
                <g id="XMLID_2_">
                    <g id="XMLID_88_" transform="translate(80.350109, 13.248588)">
                        <path d="M3.34792123,6.88135593 C3.97811816,6.88135593 4.50984683,6.36723164 4.50984683,5.71468927 L4.50984683,3.65819209 C4.50984683,2.2740113 3.56455142,1.02824859 2.14660832,0.593220339 C1.53610503,0.415254237 0.886214442,0.751412429 0.708971554,1.36440678 C0.512035011,1.97740113 0.866520788,2.6299435 1.47702407,2.8079096 C1.91028446,2.94632768 2.22538293,3.28248588 2.22538293,3.65819209 L2.22538293,5.71468927 C2.18599562,6.34745763 2.71772429,6.88135593 3.34792123,6.88135593 Z" id="XMLID_92_" fill="#1D1D1B"></path>
                        <path d="M3.34792123,7.31638418 C2.48140044,7.31638418 1.75273523,6.60451977 1.75273523,5.71468927 L1.75273523,3.65819209 C1.75273523,3.48022599 1.57549234,3.30225989 1.31947484,3.22316384 C0.905908096,3.10451977 0.590809628,2.82768362 0.374179431,2.4519774 C0.177242888,2.07627119 0.13785558,1.64124294 0.256017505,1.24576271 C0.512035011,0.415254237 1.39824945,-0.0593220339 2.24507659,0.197740113 C3.84026258,0.692090395 4.92341357,2.0960452 4.92341357,3.6779661 L4.92341357,5.73446328 C4.94310722,6.60451977 4.21444201,7.31638418 3.34792123,7.31638418 Z M1.79212254,0.968926554 C1.47702407,0.968926554 1.20131291,1.16666667 1.10284464,1.48305085 C1.04376368,1.66101695 1.06345733,1.85875706 1.1619256,2.03672316 C1.26039387,2.21468927 1.39824945,2.33333333 1.595186,2.39265537 C2.22538293,2.59039548 2.63894967,3.08474576 2.63894967,3.65819209 L2.63894967,5.71468927 C2.63894967,6.11016949 2.95404814,6.44632768 3.36761488,6.44632768 C3.76148796,6.44632768 4.09628009,6.1299435 4.09628009,5.71468927 L4.09628009,3.65819209 C4.09628009,2.4519774 3.26914661,1.38418079 2.02844639,1.00847458 C1.92997812,0.988700565 1.87089716,0.968926554 1.79212254,0.968926554 Z" id="XMLID_89_" fill="#000000"></path>
                    </g>
                    <g id="XMLID_79_" transform="translate(6.695842, 13.050847)">
                        <path d="M26.9015317,8.42372881 C25.404814,8.42372881 24.1641138,7.19774011 24.1641138,5.67514124 C24.1641138,4.17231638 25.3851204,2.92655367 26.9015317,2.92655367 L28.7921225,2.92655367 C29.4223195,2.92655367 29.9540481,2.41242938 29.9540481,1.75988701 C29.9540481,1.12711864 29.4420131,0.593220339 28.7921225,0.593220339 L26.9015317,0.593220339 C24.1247265,0.593220339 21.8599562,2.86723164 21.8599562,5.65536723 L21.8599562,16.2542373 L11.2647702,16.2542373 C10.7330416,13.7824859 8.54704595,11.9435028 5.94748359,11.9435028 C2.93435449,11.9435028 0.492341357,14.3954802 0.492341357,17.420904 C0.492341357,20.4463277 2.93435449,22.8983051 5.94748359,22.8983051 C7.404814,22.8983051 8.76367615,22.3248588 9.80743982,21.2966102 C10.5557987,20.5451977 11.0678337,19.5960452 11.2844639,18.5875706 L23.0218818,18.5875706 C23.3369803,18.5875706 23.6126915,18.4689266 23.8293217,18.2514124 C24.0459519,18.0338983 24.1641138,17.7372881 24.1641138,17.440678 L24.1641138,9.92655367 C24.95186,10.440678 25.8971554,10.7372881 26.9015317,10.7372881 L77.8490153,10.7372881 C78.4792123,10.7372881 79.0109409,11.2514124 79.0109409,11.9039548 L79.0109409,20.6638418 C79.0109409,21.2966102 79.5229759,21.8305085 80.1728665,21.8305085 C80.8030635,21.8305085 81.3347921,21.3163842 81.3347921,20.6638418 L81.3347921,11.9039548 C81.3347921,9.98587571 79.7789934,8.42372881 77.868709,8.42372881 L26.9015317,8.42372881 Z M8.17286652,19.6751412 C7.58205689,20.2683616 6.79431072,20.6045198 5.94748359,20.6045198 C4.21444201,20.6045198 2.79649891,19.180791 2.79649891,17.440678 C2.79649891,15.700565 4.21444201,14.2966102 5.94748359,14.2966102 C7.68052516,14.2966102 9.07877462,15.720339 9.07877462,17.460452 C9.07877462,18.2909605 8.76367615,19.0819209 8.17286652,19.6751412 Z" id="XMLID_85_" fill="#1D1D1B"></path>
                        <path d="M5.94748359,23.3531073 C2.69803063,23.3531073 0.0590809628,20.7033898 0.0590809628,17.440678 C0.0590809628,14.1779661 2.69803063,11.5282486 5.94748359,11.5282486 C8.58643326,11.5282486 10.9102845,13.3276836 11.5995624,15.8389831 L21.4266958,15.8389831 L21.4266958,5.67514124 C21.4266958,2.64971751 23.8884026,0.177966102 26.9015317,0.177966102 L28.7921225,0.177966102 C29.6586433,0.177966102 30.3873085,0.889830508 30.3873085,1.77966102 C30.3873085,2.64971751 29.678337,3.38135593 28.7921225,3.38135593 L26.9015317,3.38135593 C25.6411379,3.38135593 24.5973742,4.40960452 24.5973742,5.69491525 C24.5973742,6.96045198 25.6214442,8.00847458 26.9015317,8.00847458 L77.8490153,8.00847458 C79.9956236,8.00847458 81.7483589,9.76836158 81.7483589,11.9237288 L81.7483589,20.6836158 C81.7483589,21.5536723 81.0393873,22.2853107 80.1531729,22.2853107 C79.2866521,22.2853107 78.5579869,21.5734463 78.5579869,20.6836158 L78.5579869,11.9237288 C78.5579869,11.5282486 78.2428884,11.1920904 77.8293217,11.1920904 L26.9015317,11.1920904 C26.1137856,11.1920904 25.3260394,11.0141243 24.5973742,10.6779661 L24.5973742,17.460452 C24.5973742,17.8757062 24.4201313,18.2909605 24.1247265,18.5875706 C23.8293217,18.8841808 23.4157549,19.0621469 23.0021882,19.0621469 L11.5995624,19.0621469 C11.3238512,20.0310734 10.8118162,20.920904 10.1028446,21.6525424 C9,22.740113 7.52297593,23.3531073 5.94748359,23.3531073 Z M5.94748359,12.4180791 C3.17067834,12.4180791 0.925601751,14.6723164 0.925601751,17.460452 C0.925601751,20.2288136 3.17067834,22.5028249 5.94748359,22.5028249 C7.28665208,22.5028249 8.54704595,21.9689266 9.49234136,21.019774 C10.1816193,20.3276836 10.6345733,19.4774011 10.8512035,18.5282486 L10.9299781,18.1920904 L23.0218818,18.1920904 C23.2188184,18.1920904 23.3960613,18.1129944 23.5339168,17.9745763 C23.6717724,17.8361582 23.750547,17.6581921 23.750547,17.460452 L23.750547,9.15536723 L24.4201313,9.59039548 C25.1684902,10.0847458 26.0350109,10.3418079 26.9212254,10.3418079 L77.868709,10.3418079 C78.7352298,10.3418079 79.463895,11.0536723 79.463895,11.9435028 L79.463895,20.7033898 C79.463895,21.0988701 79.7789934,21.4350282 80.1925602,21.4350282 C80.5864333,21.4350282 80.9212254,21.1186441 80.9212254,20.7033898 L80.9212254,11.9435028 C80.9212254,10.2627119 79.5623632,8.89830508 77.8884026,8.89830508 L26.9015317,8.89830508 C25.1487965,8.89830508 23.7308534,7.47457627 23.7308534,5.71468927 C23.7308534,3.95480226 25.1487965,2.53107345 26.9015317,2.53107345 L28.7921225,2.53107345 C29.1859956,2.53107345 29.5207877,2.21468927 29.5207877,1.79943503 C29.5207877,1.4039548 29.2056893,1.06779661 28.7921225,1.06779661 L26.9015317,1.06779661 C24.3610503,1.06779661 22.2932166,3.1440678 22.2932166,5.69491525 L22.2932166,16.7288136 L10.9299781,16.7288136 L10.8512035,16.3926554 C10.3391685,14.079096 8.29102845,12.4180791 5.94748359,12.4180791 Z M5.94748359,21.039548 C3.97811816,21.039548 2.38293217,19.4378531 2.36323851,17.460452 C2.36323851,15.4830508 3.95842451,13.8813559 5.94748359,13.8813559 C7.91684902,13.8813559 9.51203501,15.4830508 9.51203501,17.460452 C9.51203501,18.4096045 9.13785558,19.319209 8.46827133,19.9915254 C7.79868709,20.6638418 6.89277899,21.039548 5.94748359,21.039548 Z M5.94748359,14.7316384 C4.45076586,14.7316384 3.2297593,15.9576271 3.2297593,17.440678 C3.2297593,18.9435028 4.45076586,20.1694915 5.94748359,20.1694915 C6.6761488,20.1694915 7.34573304,19.8926554 7.85776805,19.3785311 C8.36980306,18.8644068 8.64551422,18.1920904 8.64551422,17.460452 C8.64551422,15.9576271 7.44420131,14.7316384 5.94748359,14.7316384 Z" id="XMLID_80_" fill="#000000"></path>
                    </g>
                    <g id="XMLID_74_" transform="translate(44.310722, 2.768362)">
                        <path d="M1.6345733,17.5988701 C1.83150985,17.5988701 2.02844639,17.539548 2.20568928,17.440678 L26.5273523,3.34180791 L34.3260394,16.8870056 C34.6411379,17.440678 35.3501094,17.6384181 35.9015317,17.3022599 C36.452954,16.9858757 36.6498906,16.2740113 36.3150985,15.720339 L27.9649891,1.16666667 C27.8074398,0.90960452 27.5514223,0.711864407 27.2560175,0.632768362 C26.9606127,0.553672316 26.6455142,0.593220339 26.3894967,0.751412429 L1.06345733,15.4237288 C0.512035011,15.740113 0.315098468,16.4519774 0.649890591,17.0056497 C0.846827133,17.3813559 1.24070022,17.5988701 1.6345733,17.5988701 Z" id="XMLID_78_" fill="#1D1D1B"></path>
                        <path d="M1.6345733,18.0338983 C1.06345733,18.0338983 0.531728665,17.7372881 0.256017505,17.2429379 C-0.177242888,16.4915254 0.0787746171,15.5028249 0.846827133,15.0677966 L26.1728665,0.375706215 C26.547046,0.15819209 26.9803063,0.0988700565 27.3741794,0.217514124 C27.7680525,0.316384181 28.1225383,0.593220339 28.3391685,0.968926554 L36.7089716,15.5225989 C37.1422319,16.2740113 36.8862144,17.2627119 36.1181619,17.6977401 C35.3501094,18.1327684 34.3851204,17.8757062 33.95186,17.1045198 L26.3894967,3.93502825 L2.44201313,17.8163842 C2.18599562,17.9548023 1.91028446,18.0338983 1.6345733,18.0338983 Z M26.9606127,1.02824859 C26.8424508,1.02824859 26.7045952,1.06779661 26.6061269,1.12711864 L1.28008753,15.819209 C0.945295405,16.0169492 0.807439825,16.4717514 1.02407002,16.8079096 C1.1619256,17.0254237 1.39824945,17.1638418 1.65426696,17.1638418 C1.77242888,17.1638418 1.91028446,17.1242938 2.00875274,17.0649718 L26.7045952,2.74858757 L34.7199125,16.6694915 C34.916849,17.0056497 35.3698031,17.1440678 35.7045952,16.9265537 C36.0393873,16.7288136 36.1575492,16.2740113 35.9606127,15.9378531 L27.5908096,1.38418079 C27.4923414,1.2259887 27.3347921,1.08757062 27.1575492,1.0480226 C27.0787746,1.02824859 27.0196937,1.02824859 26.9606127,1.02824859 Z" id="XMLID_75_" fill="#000000"></path>
                    </g>
                    <g id="XMLID_69_" transform="translate(34.266958, 0.000000)">
                        <path d="M0.748358862,19.3587571 C0.964989059,19.7344633 1.35886214,19.9322034 1.75273523,19.9322034 C1.94967177,19.9322034 2.14660832,19.8728814 2.3238512,19.7740113 L30.643326,3.36158192 L31.0371991,4.03389831 C31.3522976,4.58757062 32.0612691,4.78531073 32.6126915,4.44915254 C33.1641138,4.13276836 33.3610503,3.42090395 33.0262582,2.86723164 L32.0612691,1.18644068 C31.9037199,0.929378531 31.6477024,0.731638418 31.3522976,0.652542373 C31.0568928,0.573446328 30.7417943,0.61299435 30.4857768,0.771186441 L1.18161926,17.7570621 C0.610503282,18.0932203 0.433260394,18.8050847 0.748358862,19.3587571 Z" id="XMLID_73_" fill="#1D1D1B"></path>
                        <path d="M1.75273523,20.3672316 C1.18161926,20.3672316 0.649890591,20.0706215 0.374179431,19.5762712 C-0.0590809628,18.8248588 0.196936543,17.8361582 0.964989059,17.4011299 L30.2691466,0.415254237 C30.6236324,0.197740113 31.0765864,0.138418079 31.4704595,0.257062147 C31.8840263,0.375706215 32.2188184,0.632768362 32.4354486,1.00847458 L33.4004376,2.68926554 C33.833698,3.44067797 33.5776805,4.42937853 32.809628,4.86440678 C32.0415755,5.29943503 31.0765864,5.04237288 30.643326,4.27118644 L30.4660832,3.97457627 L2.5404814,20.1694915 C2.30415755,20.3079096 2.02844639,20.3672316 1.75273523,20.3672316 Z M31.0568928,1.06779661 C30.9387309,1.06779661 30.8008753,1.10734463 30.702407,1.16666667 L1.3785558,18.1525424 C1.04376368,18.3502825 0.905908096,18.8050847 1.12253829,19.1412429 C1.26039387,19.3587571 1.49671772,19.4971751 1.75273523,19.4971751 C1.87089716,19.4971751 2.00875274,19.4576271 2.10722101,19.3983051 L30.8008753,2.76836158 L31.4113786,3.81638418 C31.6083151,4.17231638 32.0612691,4.29096045 32.3960613,4.07344633 C32.7308534,3.87570621 32.868709,3.42090395 32.6520788,3.08474576 L31.6870897,1.4039548 C31.5886214,1.24576271 31.4310722,1.10734463 31.2538293,1.06779661 C31.1750547,1.06779661 31.1159737,1.06779661 31.0568928,1.06779661 Z" id="XMLID_70_" fill="#000000"></path>
                    </g>
                    <g id="XMLID_60_" transform="translate(67.549234, 36.186441)">
                        <path d="M18.3938731,0.435028249 L7.42450766,0.435028249 C3.60393873,0.435028249 0.492341357,3.55932203 0.492341357,7.39548023 L0.492341357,12.1610169 C0.492341357,15.9971751 3.60393873,19.1214689 7.42450766,19.1214689 L18.3938731,19.1214689 C20.3041575,19.1214689 21.8599562,17.559322 21.8599562,15.6412429 L21.8599562,3.91525424 C21.8599562,1.99717514 20.3041575,0.435028249 18.3938731,0.435028249 Z M19.536105,15.6412429 C19.536105,16.2740113 19.02407,16.8079096 18.3741794,16.8079096 L7.404814,16.8079096 C4.8643326,16.8079096 2.77680525,14.7316384 2.77680525,12.1610169 L2.77680525,7.39548023 C2.77680525,4.84463277 4.84463895,2.74858757 7.404814,2.74858757 L18.3741794,2.74858757 C19.0043764,2.74858757 19.536105,3.26271186 19.536105,3.91525424 L19.536105,15.6412429 Z" id="XMLID_66_" fill="#1D1D1B"></path>
                        <path d="M18.3938731,19.5564972 L7.42450766,19.5564972 C3.36761488,19.5564972 0.0590809628,16.2344633 0.0590809628,12.1610169 L0.0590809628,7.39548023 C0.0590809628,3.3220339 3.36761488,-2.84217094e-14 7.42450766,-2.84217094e-14 L18.3938731,-2.84217094e-14 C20.5404814,-2.84217094e-14 22.2932166,1.75988701 22.2932166,3.91525424 L22.2932166,15.6412429 C22.273523,17.8163842 20.5404814,19.5564972 18.3938731,19.5564972 Z M7.42450766,0.870056497 C3.84026258,0.870056497 0.925601751,3.79661017 0.925601751,7.39548023 L0.925601751,12.1610169 C0.925601751,15.759887 3.84026258,18.6864407 7.42450766,18.6864407 L18.3938731,18.6864407 C20.0678337,18.6864407 21.4266958,17.3220339 21.4266958,15.6412429 L21.4266958,3.91525424 C21.4266958,2.23446328 20.0678337,0.870056497 18.3938731,0.870056497 L7.42450766,0.870056497 Z M18.3938731,17.2429379 L7.42450766,17.2429379 C4.64770241,17.2429379 2.36323851,14.9689266 2.36323851,12.1610169 L2.36323851,7.39548023 C2.36323851,4.60734463 4.62800875,2.31355932 7.42450766,2.31355932 L18.3938731,2.31355932 C19.2603939,2.31355932 19.9890591,3.02542373 19.9890591,3.91525424 L19.9890591,15.6412429 C19.9693654,16.5310734 19.2603939,17.2429379 18.3938731,17.2429379 Z M7.42450766,3.20338983 C5.12035011,3.20338983 3.2297593,5.0819209 3.2297593,7.41525424 L3.2297593,12.180791 C3.2297593,14.4943503 5.10065646,16.3926554 7.42450766,16.3926554 L18.3938731,16.3926554 C18.7877462,16.3926554 19.1225383,16.0762712 19.1225383,15.6610169 L19.1225383,3.93502825 C19.1225383,3.53954802 18.8074398,3.20338983 18.3938731,3.20338983 L7.42450766,3.20338983 Z" id="XMLID_61_" fill="#000000"></path>
                    </g>
                    <g id="XMLID_55_" transform="translate(74.442013, 44.293785)">
                        <path d="M0.866520788,0.850282486 C0.649890591,1.06779661 0.531728665,1.36440678 0.531728665,1.68079096 C0.531728665,1.97740113 0.649890591,2.2740113 0.866520788,2.49152542 C1.08315098,2.70903955 1.3785558,2.82768362 1.67396061,2.82768362 C1.96936543,2.82768362 2.26477024,2.70903955 2.50109409,2.49152542 C2.71772429,2.2740113 2.83588621,1.97740113 2.83588621,1.68079096 C2.83588621,1.36440678 2.71772429,1.08757062 2.50109409,0.850282486 C2.0678337,0.435028249 1.29978118,0.435028249 0.866520788,0.850282486 Z" id="XMLID_59_" fill="#1D1D1B"></path>
                        <path d="M1.67396061,3.28248588 C1.26039387,3.28248588 0.846827133,3.10451977 0.551422319,2.8079096 C0.256017505,2.51129944 0.0787746171,2.11581921 0.0787746171,1.68079096 C0.0787746171,1.26553672 0.236323851,0.850282486 0.531728665,0.553672316 C1.14223195,-0.0395480226 2.18599562,-0.0395480226 2.77680525,0.553672316 C3.07221007,0.850282486 3.24945295,1.26553672 3.24945295,1.68079096 C3.24945295,2.0960452 3.07221007,2.51129944 2.79649891,2.8079096 C2.50109409,3.10451977 2.08752735,3.28248588 1.67396061,3.28248588 Z M1.1619256,1.16666667 C1.02407002,1.30508475 0.945295405,1.48305085 0.945295405,1.68079096 C0.945295405,1.87853107 1.02407002,2.05649718 1.1619256,2.19491525 C1.29978118,2.33333333 1.49671772,2.41242938 1.67396061,2.41242938 C1.8512035,2.41242938 2.04814004,2.33333333 2.18599562,2.19491525 C2.30415755,2.07627119 2.38293217,1.87853107 2.38293217,1.68079096 C2.38293217,1.48305085 2.30415755,1.30508475 2.16630197,1.16666667 C1.92997812,0.90960452 1.43763676,0.90960452 1.1619256,1.16666667 Z" id="XMLID_56_" fill="#000000"></path>
                    </g>
                    <g id="XMLID_46_" transform="translate(13.588621, 54.180791)">
                        <path d="M73.2800875,2.88700565 C72.6498906,2.88700565 72.1181619,3.40112994 72.1181619,4.05367232 L72.1181619,11.9039548 C72.1181619,12.5367232 71.6061269,13.0706215 70.9562363,13.0706215 L18.4332604,13.0706215 C17.8030635,13.0706215 17.2713348,12.5564972 17.2713348,11.9039548 L17.2713348,5.93220339 C17.2713348,5.29943503 16.7592998,4.76553672 16.1094092,4.76553672 L11.3041575,4.76553672 C10.7724289,2.29378531 8.58643326,0.45480226 5.9868709,0.45480226 C2.97374179,0.45480226 0.531728665,2.90677966 0.531728665,5.93220339 C0.531728665,8.95762712 2.97374179,11.4096045 5.9868709,11.4096045 C5.9868709,11.4096045 5.9868709,11.4096045 5.9868709,11.4096045 C8.58643326,11.4096045 10.7724289,9.55084746 11.3041575,7.09887006 L14.9671772,7.09887006 L14.9671772,11.9237288 C14.9671772,13.8418079 16.5229759,15.4039548 18.4332604,15.4039548 L70.9562363,15.4039548 C72.8665208,15.4039548 74.4223195,13.8418079 74.4223195,11.9237288 L74.4223195,4.07344633 C74.4223195,3.40112994 73.9102845,2.88700565 73.2800875,2.88700565 Z M5.9868709,9.05649718 C4.25382932,9.05649718 2.83588621,7.63276836 2.83588621,5.89265537 C2.83588621,4.15254237 4.25382932,2.72881356 5.96717724,2.72881356 C7.70021882,2.72881356 9.11816193,4.15254237 9.11816193,5.89265537 C9.13785558,7.65254237 7.71991247,9.05649718 5.9868709,9.05649718 Z" id="XMLID_52_" fill="#1D1D1B"></path>
                        <path d="M70.9562363,15.799435 L18.4332604,15.799435 C16.2866521,15.799435 14.5339168,14.039548 14.5339168,11.8841808 L14.5339168,7.51412429 L11.6586433,7.51412429 C10.9496718,10.0254237 8.62582057,11.8248588 5.9868709,11.8248588 C2.73741794,11.8248588 0.0984682713,9.17514124 0.0984682713,5.91242938 C0.0984682713,2.64971751 2.73741794,5.68434189e-14 5.9868709,5.68434189e-14 C8.62582057,5.68434189e-14 10.9496718,1.79943503 11.6586433,4.31073446 L16.1291028,4.31073446 C16.9956236,4.31073446 17.7242888,5.02259887 17.7242888,5.91242938 L17.7242888,11.8841808 C17.7242888,12.279661 18.0393873,12.6158192 18.452954,12.6158192 L70.97593,12.6158192 C71.3698031,12.6158192 71.7045952,12.299435 71.7045952,11.8841808 L71.7045952,4.03389831 C71.7045952,3.16384181 72.4135667,2.43220339 73.2997812,2.43220339 C74.166302,2.43220339 74.8949672,3.1440678 74.8949672,4.03389831 L74.8949672,11.8841808 C74.8555799,14.059322 73.1028446,15.799435 70.9562363,15.799435 Z M10.9693654,6.6440678 L15.4004376,6.6440678 L15.4004376,11.9039548 C15.4004376,13.5847458 16.7592998,14.9491525 18.4332604,14.9491525 L70.9562363,14.9491525 C72.6301969,14.9491525 73.9890591,13.5847458 73.9890591,11.9039548 L73.9890591,4.05367232 C73.9890591,3.65819209 73.6739606,3.3220339 73.2603939,3.3220339 C72.8665208,3.3220339 72.5317287,3.63841808 72.5317287,4.05367232 L72.5317287,11.9039548 C72.5317287,12.7740113 71.8227571,13.5056497 70.9365427,13.5056497 L18.4332604,13.5056497 C17.5667396,13.5056497 16.8380744,12.7937853 16.8380744,11.9039548 L16.8380744,5.93220339 C16.8380744,5.53672316 16.5229759,5.20056497 16.1094092,5.20056497 L10.9496718,5.20056497 L10.8708972,4.86440678 C10.3785558,2.57062147 8.3107221,0.889830508 5.96717724,0.889830508 C3.21006565,0.889830508 0.945295405,3.1440678 0.945295405,5.93220339 C0.945295405,8.70056497 3.19037199,10.9745763 5.96717724,10.9745763 C8.3107221,10.9745763 10.3785558,9.31355932 10.8708972,7 L10.9693654,6.6440678 Z M5.9868709,9.49152542 C4.01750547,9.49152542 2.40262582,7.8700565 2.40262582,5.89265537 C2.40262582,3.91525424 3.99781182,2.31355932 5.96717724,2.31355932 C7.93654267,2.31355932 9.55142232,3.91525424 9.55142232,5.91242938 C9.57111597,7.88983051 7.95623632,9.49152542 5.9868709,9.49152542 Z M5.9868709,3.18361582 C4.49015317,3.18361582 3.28884026,4.40960452 3.28884026,5.91242938 C3.28884026,7.41525424 4.50984683,8.64124294 6.00656455,8.64124294 C7.50328228,8.64124294 8.70459519,7.41525424 8.70459519,5.91242938 C8.70459519,4.40960452 7.48358862,3.18361582 5.9868709,3.18361582 Z" id="XMLID_47_" fill="#000000"></path>
                    </g>
                    <g id="XMLID_37_" transform="translate(17.133479, 34.406780)">
                        <path d="M22.7461707,5.9519774 C22.7461707,5.31920904 22.2341357,4.78531073 21.5842451,4.78531073 L11.3041575,4.78531073 C10.7724289,2.31355932 8.58643326,0.474576271 5.9868709,0.474576271 C2.97374179,0.474576271 0.531728665,2.92655367 0.531728665,5.9519774 C0.531728665,7.41525424 1.10284464,8.77966102 2.12691466,9.82768362 C3.15098468,10.8559322 4.52954048,11.4293785 5.9868709,11.4293785 C8.58643326,11.4293785 10.7724289,9.57062147 11.3041575,7.11864407 L21.5842451,7.11864407 C22.2341357,7.11864407 22.7461707,6.60451977 22.7461707,5.9519774 Z M5.9868709,9.11581921 C5.14004376,9.11581921 4.35229759,8.77966102 3.76148796,8.18644068 C3.17067834,7.59322034 2.83588621,6.80225989 2.83588621,5.9519774 C2.83588621,4.21186441 4.25382932,2.8079096 5.9868709,2.8079096 C7.71991247,2.8079096 9.13785558,4.23163842 9.13785558,5.9519774 C9.13785558,7.6920904 7.71991247,9.11581921 5.9868709,9.11581921 Z" id="XMLID_43_" fill="#1D1D1B"></path>
                        <path d="M5.9868709,11.8644068 C4.41137856,11.8644068 2.93435449,11.2514124 1.83150985,10.1242938 C0.728665208,9.01694915 0.0984682713,7.53389831 0.0984682713,5.9519774 C0.0984682713,2.68926554 2.73741794,0.0395480226 5.9868709,0.0395480226 C8.62582057,0.0395480226 10.9496718,1.83898305 11.6586433,4.35028249 L21.6039387,4.35028249 C22.4704595,4.35028249 23.1991247,5.06214689 23.1991247,5.9519774 C23.1991247,6.8220339 22.4901532,7.55367232 21.6039387,7.55367232 L11.6586433,7.55367232 C10.9496718,10.0649718 8.62582057,11.8644068 5.9868709,11.8644068 Z M5.9868709,0.90960452 C3.2297593,0.90960452 0.964989059,3.16384181 0.964989059,5.9519774 C0.964989059,7.29661017 1.47702407,8.56214689 2.44201313,9.51129944 C3.38730853,10.460452 4.64770241,10.9943503 5.9868709,10.9943503 C8.33041575,10.9943503 10.3982495,9.33333333 10.8905908,7.01977401 L10.9693654,6.68361582 L21.6039387,6.68361582 C21.9978118,6.68361582 22.3326039,6.36723164 22.3326039,5.9519774 C22.3326039,5.55649718 22.0175055,5.22033898 21.6039387,5.22033898 L10.9693654,5.22033898 L10.8905908,4.88418079 C10.3982495,2.59039548 8.33041575,0.90960452 5.9868709,0.90960452 Z M5.9868709,9.55084746 C5.02188184,9.55084746 4.1356674,9.17514124 3.46608315,8.50282486 C2.79649891,7.83050847 2.42231947,6.92090395 2.42231947,5.97175141 C2.42231947,3.99435028 4.01750547,2.39265537 6.00656455,2.39265537 C7.97592998,2.39265537 9.59080963,3.99435028 9.59080963,5.97175141 C9.57111597,7.92937853 7.95623632,9.55084746 5.9868709,9.55084746 Z M5.9868709,3.24293785 C4.49015317,3.24293785 3.26914661,4.46892655 3.26914661,5.9519774 C3.26914661,6.68361582 3.54485777,7.3559322 4.05689278,7.8700565 C4.56892779,8.38418079 5.25820569,8.66101695 5.96717724,8.66101695 C7.46389497,8.66101695 8.66520788,7.43502825 8.68490153,5.93220339 C8.70459519,4.44915254 7.48358862,3.24293785 5.9868709,3.24293785 Z" id="XMLID_38_" fill="#000000"></path>
                    </g>
                    <g id="XMLID_28_" transform="translate(0.000000, 44.293785)">
                        <path d="M29.9934354,7.09887006 C30.6236324,7.09887006 31.1553611,6.58474576 31.1553611,5.93220339 C31.1553611,5.29943503 30.643326,4.76553672 29.9934354,4.76553672 L11.3435449,4.76553672 C10.8118162,2.29378531 8.62582057,0.45480226 6.02625821,0.45480226 C3.0131291,0.45480226 0.571115974,2.90677966 0.571115974,5.93220339 C0.571115974,8.95762712 3.0131291,11.4096045 6.02625821,11.4096045 C8.62582057,11.4096045 10.8118162,9.55084746 11.3435449,7.09887006 L29.9934354,7.09887006 Z M6.00656455,9.0960452 C4.27352298,9.0960452 2.85557987,7.67231638 2.85557987,5.9519774 C2.85557987,4.21186441 4.27352298,2.78813559 6.00656455,2.78813559 C7.73960613,2.78813559 9.15754923,4.21186441 9.15754923,5.93220339 C9.15754923,7.67231638 7.73960613,9.0960452 6.00656455,9.0960452 Z" id="XMLID_34_" fill="#1D1D1B"></path>
                        <path d="M6.00656455,11.8446328 C2.7571116,11.8446328 0.118161926,9.19491525 0.118161926,5.93220339 C0.118161926,2.66949153 2.7571116,0.0197740113 6.00656455,0.0197740113 C8.64551422,0.0197740113 10.9693654,1.81920904 11.678337,4.33050847 L29.9934354,4.33050847 C30.8599562,4.33050847 31.5886214,5.04237288 31.5886214,5.93220339 C31.5886214,6.80225989 30.8796499,7.53389831 29.9934354,7.53389831 L11.678337,7.53389831 C10.9693654,10.0451977 8.64551422,11.8446328 6.00656455,11.8446328 Z M6.00656455,0.889830508 C3.24945295,0.889830508 0.984682713,3.16384181 0.984682713,5.93220339 C0.984682713,8.70056497 3.2297593,10.9745763 6.00656455,10.9745763 C8.35010941,10.9745763 10.4179431,9.31355932 10.9102845,7 L10.9890591,6.66384181 L29.9934354,6.66384181 C30.3873085,6.66384181 30.7221007,6.34745763 30.7221007,5.93220339 C30.7221007,5.53672316 30.4070022,5.20056497 29.9934354,5.20056497 L10.9890591,5.20056497 L10.9102845,4.86440678 C10.4179431,2.57062147 8.35010941,0.889830508 6.00656455,0.889830508 Z M6.00656455,9.53107345 C4.03719912,9.53107345 2.42231947,7.92937853 2.42231947,5.9519774 C2.42231947,3.97457627 4.01750547,2.37288136 6.00656455,2.37288136 C7.97592998,2.37288136 9.57111597,3.97457627 9.57111597,5.9519774 C9.57111597,7.92937853 7.97592998,9.53107345 6.00656455,9.53107345 Z M6.00656455,3.22316384 C4.50984683,3.22316384 3.28884026,4.44915254 3.28884026,5.9519774 C3.28884026,7.45480226 4.50984683,8.66101695 5.9868709,8.66101695 C7.48358862,8.66101695 8.70459519,7.43502825 8.70459519,5.9519774 C8.70459519,4.46892655 7.50328228,3.22316384 6.00656455,3.22316384 Z" id="XMLID_29_" fill="#000000"></path>
                    </g>
                    <g id="XMLID_23_" transform="translate(32.297593, 48.446328)">
                        <path d="M1.69365427,0.61299435 C1.06345733,0.61299435 0.531728665,1.12711864 0.531728665,1.77966102 C0.531728665,2.41242938 1.04376368,2.94632768 1.69365427,2.94632768 L2.79649891,2.94632768 C3.42669584,2.94632768 3.95842451,2.43220339 3.95842451,1.77966102 C3.95842451,1.14689266 3.4463895,0.61299435 2.79649891,0.61299435 L1.69365427,0.61299435 Z" id="XMLID_27_" fill="#1D1D1B"></path>
                        <path d="M2.81619256,3.38135593 L1.71334792,3.38135593 C0.846827133,3.38135593 0.118161926,2.66949153 0.118161926,1.77966102 C0.118161926,0.889830508 0.827133479,0.177966102 1.71334792,0.177966102 L2.81619256,0.177966102 C3.68271335,0.177966102 4.41137856,0.889830508 4.41137856,1.77966102 C4.41137856,2.66949153 3.68271335,3.38135593 2.81619256,3.38135593 Z M1.69365427,1.0480226 C1.29978118,1.0480226 0.964989059,1.36440678 0.964989059,1.77966102 C0.964989059,2.19491525 1.28008753,2.51129944 1.69365427,2.51129944 L2.79649891,2.51129944 C3.19037199,2.51129944 3.52516411,2.19491525 3.52516411,1.77966102 C3.52516411,1.36440678 3.21006565,1.0480226 2.79649891,1.0480226 L1.69365427,1.0480226 Z" id="XMLID_24_" fill="#000000"></path>
                    </g>
                    <g id="XMLID_18_" transform="translate(37.417943, 48.446328)">
                        <path d="M1.65426696,2.94632768 L2.7571116,2.94632768 C3.38730853,2.94632768 3.9190372,2.43220339 3.9190372,1.77966102 C3.9190372,1.14689266 3.40700219,0.61299435 2.7571116,0.61299435 L1.65426696,0.61299435 C1.02407002,0.61299435 0.492341357,1.12711864 0.492341357,1.77966102 C0.512035011,2.41242938 1.02407002,2.94632768 1.65426696,2.94632768 Z" id="XMLID_22_" fill="#1D1D1B"></path>
                        <path d="M2.77680525,3.38135593 L1.67396061,3.38135593 C0.807439825,3.38135593 0.0787746171,2.66949153 0.0787746171,1.77966102 C0.0787746171,0.889830508 0.787746171,0.177966102 1.67396061,0.177966102 L2.77680525,0.177966102 C3.64332604,0.177966102 4.37199125,0.889830508 4.37199125,1.77966102 C4.37199125,2.66949153 3.64332604,3.38135593 2.77680525,3.38135593 Z M1.65426696,1.0480226 C1.26039387,1.0480226 0.925601751,1.36440678 0.925601751,1.77966102 C0.925601751,2.19491525 1.24070022,2.51129944 1.65426696,2.51129944 L2.7571116,2.51129944 C3.15098468,2.51129944 3.48577681,2.19491525 3.48577681,1.77966102 C3.48577681,1.36440678 3.17067834,1.0480226 2.7571116,1.0480226 L1.65426696,1.0480226 Z" id="XMLID_19_" fill="#000000"></path>
                    </g>
                    <g id="XMLID_13_" transform="translate(42.538293, 48.446328)">
                        <path d="M1.61487965,2.94632768 L2.71772429,2.94632768 C3.34792123,2.94632768 3.87964989,2.43220339 3.87964989,1.77966102 C3.87964989,1.14689266 3.36761488,0.61299435 2.71772429,0.61299435 L1.61487965,0.61299435 C0.984682713,0.61299435 0.452954048,1.12711864 0.452954048,1.77966102 C0.452954048,2.41242938 0.984682713,2.94632768 1.61487965,2.94632768 Z" id="XMLID_17_" fill="#1D1D1B"></path>
                        <path d="M2.71772429,3.38135593 L1.61487965,3.38135593 C0.748358862,3.38135593 0.0196936543,2.66949153 0.0196936543,1.77966102 C0.0196936543,0.889830508 0.728665208,0.177966102 1.61487965,0.177966102 L2.71772429,0.177966102 C3.58424508,0.177966102 4.31291028,0.889830508 4.31291028,1.77966102 C4.31291028,2.66949153 3.60393873,3.38135593 2.71772429,3.38135593 Z M1.61487965,1.0480226 C1.22100656,1.0480226 0.886214442,1.36440678 0.886214442,1.77966102 C0.886214442,2.19491525 1.20131291,2.51129944 1.61487965,2.51129944 L2.71772429,2.51129944 C3.11159737,2.51129944 3.4463895,2.19491525 3.4463895,1.77966102 C3.4463895,1.36440678 3.13129103,1.0480226 2.71772429,1.0480226 L1.61487965,1.0480226 Z" id="XMLID_14_" fill="#000000"></path>
                    </g>
                    <g id="XMLID_8_" transform="translate(40.765864, 38.757062)">
                        <path d="M3.99781182,1.60169492 C3.99781182,0.968926554 3.48577681,0.435028249 2.83588621,0.435028249 L1.73304158,0.435028249 C1.10284464,0.435028249 0.571115974,0.949152542 0.571115974,1.60169492 C0.571115974,2.23446328 1.08315098,2.76836158 1.73304158,2.76836158 L2.83588621,2.76836158 C3.48577681,2.76836158 3.99781182,2.25423729 3.99781182,1.60169492 Z" id="XMLID_12_" fill="#1D1D1B"></path>
                        <path d="M2.83588621,3.20338983 L1.73304158,3.20338983 C0.866520788,3.20338983 0.13785558,2.49152542 0.13785558,1.60169492 C0.13785558,0.731638418 0.846827133,-5.68434189e-14 1.73304158,-5.68434189e-14 L2.83588621,-5.68434189e-14 C3.702407,-5.68434189e-14 4.43107221,0.711864407 4.43107221,1.60169492 C4.43107221,2.49152542 3.72210066,3.20338983 2.83588621,3.20338983 Z M1.73304158,0.889830508 C1.33916849,0.889830508 1.00437637,1.20621469 1.00437637,1.62146893 C1.00437637,2.01694915 1.31947484,2.35310734 1.73304158,2.35310734 L2.83588621,2.35310734 C3.2297593,2.35310734 3.56455142,2.03672316 3.56455142,1.62146893 C3.56455142,1.2259887 3.24945295,0.889830508 2.83588621,0.889830508 L1.73304158,0.889830508 Z" id="XMLID_9_" fill="#000000"></path>
                    </g>
                    <g id="XMLID_3_" transform="translate(45.886214, 38.757062)">
                        <path d="M1.69365427,0.45480226 C1.06345733,0.45480226 0.531728665,0.968926554 0.531728665,1.62146893 C0.531728665,2.25423729 1.04376368,2.78813559 1.69365427,2.78813559 L2.79649891,2.78813559 C3.42669584,2.78813559 3.95842451,2.2740113 3.95842451,1.62146893 C3.95842451,0.988700565 3.4463895,0.45480226 2.79649891,0.45480226 L1.69365427,0.45480226 Z" id="XMLID_7_" fill="#1D1D1B"></path>
                        <path d="M2.79649891,3.20338983 L1.69365427,3.20338983 C0.827133479,3.20338983 0.0984682713,2.49152542 0.0984682713,1.60169492 C0.0984682713,0.731638418 0.807439825,-5.68434189e-14 1.69365427,-5.68434189e-14 L2.79649891,-5.68434189e-14 C3.66301969,-5.68434189e-14 4.3916849,0.711864407 4.3916849,1.60169492 C4.3916849,2.49152542 3.68271335,3.20338983 2.79649891,3.20338983 Z M1.69365427,0.889830508 C1.29978118,0.889830508 0.964989059,1.20621469 0.964989059,1.62146893 C0.964989059,2.01694915 1.28008753,2.35310734 1.69365427,2.35310734 L2.79649891,2.35310734 C3.19037199,2.35310734 3.52516411,2.03672316 3.52516411,1.62146893 C3.52516411,1.2259887 3.21006565,0.889830508 2.79649891,0.889830508 L1.69365427,0.889830508 Z" id="XMLID_4_" fill="#000000"></path>
                    </g>
                </g>
            </g>
        </g>
    </g>
</svg>