<?xml version="1.0" encoding="UTF-8"?>
<svg width="75px" height="73px" viewBox="0 0 75 73" version="1.1" xmlns="http://www.w3.org/2000/svg" xmlns:xlink="http://www.w3.org/1999/xlink">
    <!-- Generator: Sketch 49.1 (51147) - http://www.bohemiancoding.com/sketch -->
    <title>icon_2</title>
    <desc>Created with Sketch.</desc>
    <defs></defs>
    <g id="Page-1" stroke="none" stroke-width="1" fill="none" fill-rule="evenodd">
        <g id="Taager_Dark" transform="translate(-1109.000000, -2246.000000)" fill-rule="nonzero">
            <g id="icon_2" transform="translate(1109.000000, 2246.000000)">
                <path d="M3.71101871,70.7926566 L71.3201663,70.7926566 C72.3336798,70.7926566 73.1600832,69.9570194 73.1600832,68.9321814 L73.1600832,13.0548596 C73.1600832,12.0300216 72.3336798,11.1943844 71.3201663,11.1943844 L3.71101871,11.1943844 C2.6975052,11.1943844 1.87110187,12.0300216 1.87110187,13.0548596 L1.87110187,68.9479482 C1.88669439,69.9570194 2.71309771,70.7926566 3.71101871,70.7926566 Z" id="Shape" fill="#E6FBFA"></path>
                <polygon id="Shape" fill="#29B6AB" points="42.3336798 35.3963283 44.0488565 35.3174946 47.4012474 42.7278618 43.8149688 44.9352052 37.3440748 47.2213823 29.6257796 43.7526998 28.5343035 40.7570194 31.4189189 35.5539957 33.9137214 34.450324 37.9677755 35.7116631 41.1642412 35.2386609"></polygon>
                <rect id="Rectangle-path" fill="#29B6AB" x="19.4906445" y="52.2982721" width="38.2484407" height="7.56803456"></rect>
                <path d="M68.7006237,0.0157667387 L6.33056133,0.0157667387 C2.88461538,0.0157667387 0.0935550936,2.72764579 0.0935550936,6.08596112 L0.0935550936,66.787905 C0.0935550936,70.1462203 2.88461538,72.8580994 6.33056133,72.8580994 L68.7006237,72.8580994 C72.1465696,72.8580994 74.9376299,70.1462203 74.9376299,66.787905 L74.9376299,6.08596112 C74.9376299,2.74341253 72.1465696,0.0315334773 68.7006237,0.0157667387 Z M2.58835759,6.08596112 C2.58835759,4.06781857 4.25675676,2.44384449 6.33056133,2.44384449 L68.7006237,2.44384449 C70.7744283,2.44384449 72.4428274,4.06781857 72.4428274,6.08596112 L72.4428274,9.72807775 L2.58835759,9.72807775 L2.58835759,6.08596112 Z M68.7006237,70.4300216 L6.33056133,70.4300216 C4.25675676,70.4300216 2.58835759,68.8060475 2.58835759,66.787905 L2.58835759,12.1561555 L72.4428274,12.1561555 L72.4428274,66.787905 C72.4428274,68.8060475 70.7744283,70.4300216 68.7006237,70.4300216 Z" id="Shape" fill="#000000"></path>
                <polygon id="Shape" fill="#000000" points="5.08316008 5.06112311 7.57796258 5.06112311 7.57796258 7.5838013 5.08316008 7.5838013"></polygon>
                <polygon id="Shape" fill="#000000" points="10.0727651 5.06112311 12.5675676 5.06112311 12.5675676 7.5838013 10.0727651 7.5838013"></polygon>
                <polygon id="Shape" fill="#000000" points="15.0623701 5.06112311 17.5571726 5.06112311 17.5571726 7.5838013 15.0623701 7.5838013"></polygon>
                <path d="M26.5384615,42.1444924 C27.1153846,42.9170626 27.7546778,43.6265659 28.4719335,44.2730022 L28.487526,44.2887689 C28.5031185,44.3045356 28.518711,44.3045356 28.5343035,44.3203024 C29.485447,45.1717063 30.5301455,45.8969762 31.6683992,46.4803456 C31.6995842,46.4961123 31.7151767,46.511879 31.7463617,46.5276458 C31.8243243,46.5591793 31.9022869,46.5907127 31.9802495,46.638013 C32.2765073,46.7799136 32.5727651,46.9218143 32.8846154,47.0479482 L32.9781705,47.0952484 C33.2120582,47.1898488 33.4615385,47.2844492 33.7266112,47.3632829 C33.8669439,47.4105832 34.022869,47.4578834 34.1787942,47.5051836 C34.2879418,47.5367171 34.3814969,47.5682505 34.506237,47.6155508 L35.0831601,47.7416847 C35.2079002,47.7732181 35.3482328,47.8047516 35.472973,47.8362851 L35.5665281,47.8520518 C35.7536383,47.8835853 35.9407484,47.8993521 36.1278586,47.9308855 C36.3929314,47.962419 36.6580042,48.0097192 36.9230769,48.0412527 C37.3908524,48.0885529 37.8586279,48.1200864 38.3264033,48.1200864 C38.7941788,48.1200864 39.2463617,48.0885529 39.7297297,48.0412527 C40.04158,48.0097192 40.3378378,47.962419 40.6496881,47.9151188 C40.8056133,47.8835853 40.9615385,47.8835853 41.1330561,47.8520518 L41.2110187,47.8362851 C41.3357588,47.8047516 41.460499,47.7732181 41.5852391,47.7574514 L42.2869023,47.599784 C42.3648649,47.5840173 42.4272349,47.5524838 42.5051975,47.5209503 C42.8170478,47.4263499 43.1288981,47.3159827 43.4407484,47.2056156 C43.5343035,47.1740821 43.6122661,47.1425486 43.7058212,47.1110151 L43.7837838,47.0794816 C44.0956341,46.9533477 44.3918919,46.8114471 44.6881497,46.6695464 C44.7661123,46.638013 44.8284823,46.6064795 44.9064449,46.5591793 C44.9376299,46.5434125 44.9532225,46.5276458 44.9844075,46.511879 C46.1070686,45.9285097 47.1673597,45.2032397 48.1029106,44.3518359 C48.1185031,44.3360691 48.1340956,44.3360691 48.1496881,44.3203024 L48.1652807,44.3045356 C53.7785863,39.2276458 54.6985447,30.6663067 50.2858628,24.4857451 C45.8731809,18.3051836 37.5779626,16.4762419 31.029106,20.2602592 C24.4802495,24.0442765 21.8139293,32.1956803 24.8388773,39.1803456 L26.5384615,42.1444924 Z M30.9355509,42.4913607 L30.9355509,42.1444924 C30.9355509,39.7952484 32.0426195,37.5721382 33.9137214,36.1688985 C36.502079,38.187041 40.1039501,38.187041 42.7079002,36.1688985 C44.5790021,37.5721382 45.6860707,39.7952484 45.6860707,42.1444924 L45.6860707,42.475594 C45.031185,42.9958963 44.3451143,43.4531317 43.6122661,43.8315335 L43.4719335,43.9103672 C43.2068607,44.0365011 42.9417879,44.162635 42.6767152,44.2730022 C42.4116424,44.3833693 42.1933472,44.462203 41.9594595,44.5410367 L41.7879418,44.6041037 C41.4760915,44.6987041 41.1486486,44.7775378 40.8212058,44.8563715 L40.6340956,44.9036717 C40.462578,44.9352052 40.2910603,44.9509719 40.1195426,44.9825054 C39.8856549,45.0140389 39.6673597,45.0613391 39.4490644,45.0771058 C39.1372141,45.1086393 38.8253638,45.124406 38.5135135,45.124406 C38.4511435,45.124406 38.3887734,45.1401728 38.3264033,45.1401728 C37.9365904,45.1401728 37.5623701,45.124406 37.2037422,45.0771058 C37.0322245,45.0613391 36.8762994,45.0298056 36.7047817,45.0140389 C36.4864865,44.9825054 36.2681913,44.9509719 36.049896,44.9194384 L35.7848233,44.8563715 C35.535343,44.7933045 35.2702703,44.7302376 35.0363825,44.6514039 C34.7869023,44.5725702 34.506237,44.4779698 34.2567568,44.3833693 C34.1787942,44.3518359 34.0852391,44.3203024 34.0072765,44.2887689 C33.7422037,44.1784017 33.477131,44.0680346 33.2276507,43.9419006 C33.1808732,43.9103672 33.1185031,43.8946004 33.0561331,43.863067 C32.2765073,43.4688985 31.5904366,43.0116631 30.9355509,42.4913607 Z M38.2952183,34.7025918 C35.8471933,34.7025918 33.8825364,32.700216 33.8825364,30.2406048 C33.8825364,27.7809935 35.8627859,25.7786177 38.2952183,25.7786177 C40.7276507,25.7786177 42.7079002,27.7809935 42.7079002,30.2406048 C42.7079002,32.700216 40.7432432,34.7025918 38.2952183,34.7025918 Z M38.2952183,21.2850972 C42.5831601,21.2693305 46.543659,23.6343413 48.6174636,27.4183585 C50.6912682,31.2023758 50.5665281,35.8535637 48.2744283,39.5272138 C47.6975052,37.3198704 46.4345114,35.3490281 44.6413721,33.9457883 C45.2962578,32.8105832 45.6548857,31.5334773 45.6548857,30.224838 C45.6548857,26.1097192 42.3492723,22.7829374 38.2952183,22.7829374 C34.2411642,22.7829374 30.9355509,26.125486 30.9355509,30.224838 C30.9355509,31.5334773 31.2941788,32.8263499 31.9490644,33.9457883 C30.1715177,35.3490281 28.8929314,37.3198704 28.3160083,39.5272138 C26.0239085,35.8535637 25.8991684,31.2181425 27.972973,27.4183585 C30.0467775,23.6343413 34.0072765,21.2850972 38.2952183,21.2850972 Z" id="Shape" fill="#000000"></path>
                <path d="M54.4490644,61.2222462 L23.2016632,61.2222462 C20.2702703,61.2222462 17.8690229,58.8099352 17.8690229,55.8300216 C17.8690229,52.850108 20.2546778,50.437797 23.2016632,50.437797 L54.464657,50.437797 C57.3960499,50.437797 59.7972973,52.850108 59.7972973,55.8300216 C59.7972973,58.8099352 57.3960499,61.2222462 54.4490644,61.2222462 Z M23.2016632,52.9762419 C21.6424116,52.9762419 20.3638254,54.2533477 20.3638254,55.8457883 C20.3638254,57.4382289 21.6268191,58.7153348 23.2016632,58.7153348 L54.464657,58.7153348 C56.0239085,58.7153348 57.3024948,57.4382289 57.3024948,55.8457883 C57.3024948,54.2533477 56.039501,52.9762419 54.464657,52.9762419 L23.2016632,52.9762419 Z" id="Shape" fill="#000000"></path>
            </g>
        </g>
    </g>
</svg>