<?xml version="1.0" encoding="UTF-8"?>
<svg width="90px" height="73px" viewBox="0 0 90 73" version="1.1" xmlns="http://www.w3.org/2000/svg" xmlns:xlink="http://www.w3.org/1999/xlink">
    <!-- Generator: Sketch 49.1 (51147) - http://www.bohemiancoding.com/sketch -->
    <title>icon_4</title>
    <desc>Created with Sketch.</desc>
    <defs></defs>
    <g id="Page-1" stroke="none" stroke-width="1" fill="none" fill-rule="evenodd">
        <g id="Taager_Dark" transform="translate(-817.000000, -2245.000000)" fill-rule="nonzero">
            <g id="icon_4" transform="translate(817.000000, 2245.000000)">
                <polygon id="Shape" fill="#E6FBFA" points="40.2866379 12.1731383 41.5862069 18.8324468 37.0668103 20.1720745 34.5452586 40.2082447 14.0818966 39.2957447 17.0883621 10.8140957"></polygon>
                <polygon id="Shape" fill="#010D19" points="89.5926724 63.8167553 80.1077586 56.575 86.2564655 51.0805851 62.7478448 44.0718085 71.0883621 67.3890957 76.2284483 61.3510638 85.7909483 69.2529255 89.612069 65.3505319"></polygon>
                <polygon id="Shape" fill="#29B6AB" points="43.2931034 18.1140957 37.0668103 20.1720745 33.9439655 43.9359043 59.450431 43.9359043 57.6077586 19.4537234"></polygon>
                <g id="Group">
                    <g transform="translate(0.000000, 6.406915)" id="Shape">
                        <g>
                            <path d="M50.3728448,64.3992021 L44.8836207,64.3992021 L44.825431,64.3797872 C44.8060345,64.3797872 44.7866379,64.3603723 44.7672414,64.3603723 C42.9051724,63.9332447 41.3922414,60.0308511 41.3922414,55.6625 C41.3922414,55.6236702 41.3922414,55.5848404 41.3922414,55.5460106 C41.3922414,55.5265957 41.3922414,55.487766 41.3922414,55.4683511 L41.3922414,55.0606383 L61.6810345,55.0606383 L61.6810345,53.7015957 L7.25431034,53.7015957 C4.44181034,53.7015957 2.15301724,51.4106383 2.15301724,48.5954787 L2.15301724,45.625 L61.6422414,45.625 L61.6422414,44.2659574 L2.17241379,44.2659574 L2.17241379,7.33882979 C2.17241379,4.52367021 4.4612069,2.23271277 7.2737069,2.23271277 L13.1896552,2.23271277 C13.5581897,2.23271277 13.8685345,1.92207447 13.8685345,1.55319149 C13.8685345,1.18430851 13.5581897,0.873670213 13.1896552,0.873670213 L7.25431034,0.873670213 C3.70474138,0.873670213 0.814655172,3.76648936 0.814655172,7.31941489 L0.814655172,48.5760638 C0.814655172,52.1289894 3.70474138,55.0218085 7.25431034,55.0218085 L29.6573276,55.0218085 L29.6573276,55.4683511 C29.6573276,55.5265957 29.6573276,55.5848404 29.6573276,55.6236702 C29.6573276,60.0114362 28.1443966,63.9138298 26.262931,64.3215426 C26.2435345,64.3215426 26.2241379,64.3409574 26.2047414,64.3409574 L26.1465517,64.3603723 L20.6573276,64.3603723 C20.2887931,64.3603723 19.9784483,64.6710106 19.9784483,65.0398936 C19.9784483,65.4087766 20.2887931,65.7194149 20.6573276,65.7194149 L50.3534483,65.7194149 C50.7219828,65.7194149 51.0323276,65.4087766 51.0323276,65.0398936 C51.0323276,64.7098404 50.7413793,64.3992021 50.3728448,64.3992021 Z M28.5711207,64.3992021 L28.9978448,63.7585106 C30.2780172,61.8558511 31.0150862,58.9047872 31.0150862,55.6430851 C31.0150862,55.6042553 31.0150862,55.5654255 31.0150862,55.5265957 L31.0150862,55.0218085 L40.0538793,55.0218085 L40.0538793,55.4295213 C40.0538793,55.4683511 40.0538793,55.487766 40.0538793,55.5265957 C40.0538793,55.5654255 40.0538793,55.5848404 40.0538793,55.6236702 C40.0538793,58.8659574 40.7909483,61.8364362 42.0711207,63.7390957 L42.4978448,64.3797872 L28.5711207,64.3797872 L28.5711207,64.3992021 Z" fill="#1D1D1B"></path>
                            <path d="M50.3728448,66.4765957 L20.6767241,66.4765957 C19.9008621,66.4765957 19.2801724,65.8553191 19.2801724,65.0787234 C19.2801724,64.3021277 19.9008621,63.6808511 20.6767241,63.6808511 L26.0689655,63.6808511 L26.1271552,63.6614362 C27.4461207,63.3702128 28.9202586,60.0696809 28.9396552,55.7984043 L7.25431034,55.7984043 C3.29741379,55.7984043 0.0775862069,52.5755319 0.0775862069,48.6148936 L0.0775862069,7.33882979 C0.0775862069,3.37819149 3.29741379,0.155319149 7.25431034,0.155319149 L13.1702586,0.155319149 C13.9461207,0.155319149 14.5668103,0.776595745 14.5668103,1.55319149 C14.5668103,2.32978723 13.9461207,2.95106383 13.1702586,2.95106383 L7.25431034,2.95106383 C4.84913793,2.95106383 2.89008621,4.91196809 2.89008621,7.31941489 L2.89008621,43.5281915 L62.3793103,43.5281915 L62.3793103,46.3433511 L2.89008621,46.3433511 L2.89008621,48.5760638 C2.89008621,50.9835106 4.84913793,52.9444149 7.25431034,52.9444149 L62.3793103,52.9444149 L62.3793103,55.7595745 L42.1099138,55.7595745 C42.1293103,57.7398936 42.4590517,59.681383 43.0603448,61.2151596 C43.5840517,62.593617 44.3017241,63.4867021 44.9224138,63.6420213 L44.9806034,63.6614362 L50.3534483,63.6614362 C51.1293103,63.6614362 51.75,64.2827128 51.75,65.0593085 C51.75,65.8359043 51.1487069,66.4765957 50.3728448,66.4765957 Z M43.7586207,65.0204787 L44.3987069,65.0204787 C44.0301724,64.9039894 43.6810345,64.6904255 43.3318966,64.3992021 L43.7586207,65.0204787 Z M26.6314655,65.0204787 L27.2715517,65.0204787 L27.7176724,64.3603723 C27.387931,64.6710106 27.0193966,64.9039894 26.6314655,65.0204787 Z M29.9288793,63.6614362 L41.1206897,63.6614362 C39.9762931,61.681117 39.3168103,58.8465426 39.2974138,55.7789894 L31.7327586,55.7789894 C31.7327586,58.8659574 31.0732759,61.681117 29.9288793,63.6614362 Z" fill="#000000"></path>
                        </g>
                        <g transform="translate(48.103448, 0.000000)">
                            <path d="M1.51293103,2.25212766 L15.6724138,2.25212766 C18.4849138,2.25212766 20.7737069,4.54308511 20.7737069,7.35824468 L20.7737069,30.4231383 L22.1314655,30.4231383 L22.1314655,7.33882979 C22.1314655,3.78590426 19.2413793,0.893085106 15.6918103,0.893085106 L1.53232759,0.893085106 C1.1637931,0.893085106 0.853448276,1.2037234 0.853448276,1.57260638 C0.853448276,1.94148936 1.14439655,2.25212766 1.51293103,2.25212766 Z" fill="#1D1D1B"></path>
                            <path d="M22.8491379,31.1414894 L20.0366379,31.1414894 L20.0366379,7.33882979 C20.0366379,4.93138298 18.0775862,2.97047872 15.6724138,2.97047872 L1.51293103,2.97047872 C0.737068966,2.97047872 0.11637931,2.34920213 0.11637931,1.57260638 C0.11637931,0.796010638 0.737068966,0.174734043 1.51293103,0.174734043 L15.6724138,0.174734043 C19.6293103,0.174734043 22.8491379,3.39760638 22.8491379,7.35824468 L22.8491379,31.1414894 Z" fill="#000000"></path>
                        </g>
                    </g>
                    <g transform="translate(13.189655, 0.000000)" id="Shape">
                        <path d="M2.83189655,11.4159574 L0.484913793,39.2569149 C0.465517241,39.5481383 0.5625,39.8587766 0.756465517,40.0723404 C0.969827586,40.2859043 1.24137931,40.4218085 1.55172414,40.4218085 L17.3211207,40.4218085 C17.9224138,40.4218085 18.4073276,39.9364362 18.4073276,39.3345745 C18.4073276,38.7327128 17.9224138,38.2473404 17.3211207,38.2473404 L2.73491379,38.2473404 L4.88793103,12.5614362 L9.77586207,12.5614362 L9.77586207,15.5707447 C9.77586207,16.1726064 10.2607759,16.6579787 10.862069,16.6579787 C11.4633621,16.6579787 11.9482759,16.1726064 11.9482759,15.5707447 L11.9482759,6.19335106 C11.9482759,4.23244681 13.5387931,2.64042553 15.4978448,2.64042553 C17.4568966,2.64042553 19.0474138,4.23244681 19.0474138,6.19335106 L19.0474138,7.80478723 C19.0474138,8.40664894 19.5323276,8.89202128 20.1336207,8.89202128 C20.7349138,8.89202128 21.2198276,8.40664894 21.2198276,7.80478723 L21.2198276,6.19335106 C21.2198276,3.0481383 18.6594828,0.48537234 15.5172414,0.48537234 C12.375,0.48537234 9.81465517,3.0481383 9.81465517,6.19335106 L9.81465517,10.406383 L3.9375,10.406383 C3.3362069,10.4257979 2.87068966,10.8529255 2.83189655,11.4159574 Z" fill="#1D1D1B"></path>
                        <path d="M17.3405172,40.8295213 L1.57112069,40.8295213 C1.1637931,40.8295213 0.756465517,40.6547872 0.484913793,40.3441489 C0.213362069,40.0335106 0.0581896552,39.6257979 0.0969827586,39.2180851 L2.44396552,11.3771277 C2.50215517,10.6199468 3.16163793,10.0180851 3.91810345,10.0180851 L9.38793103,10.0180851 L9.38793103,6.19335106 C9.38793103,2.81515957 12.1228448,0.0776595745 15.4978448,0.0776595745 C18.8728448,0.0776595745 21.6077586,2.81515957 21.6077586,6.19335106 L21.6077586,7.80478723 C21.6077586,8.62021277 20.9482759,9.28031915 20.1336207,9.28031915 C19.3189655,9.28031915 18.6594828,8.62021277 18.6594828,7.80478723 L18.6594828,6.19335106 C18.6594828,4.46542553 17.2435345,3.0481383 15.5172414,3.0481383 C13.7909483,3.0481383 12.375,4.46542553 12.375,6.19335106 L12.375,15.5901596 C12.375,16.4055851 11.7155172,17.0656915 10.9008621,17.0656915 C10.0862069,17.0656915 9.42672414,16.4055851 9.42672414,15.5901596 L9.42672414,12.9691489 L5.31465517,12.9691489 L3.18103448,37.8590426 L17.3405172,37.8590426 C18.1551724,37.8590426 18.8146552,38.5191489 18.8146552,39.3345745 C18.8340517,40.1694149 18.1551724,40.8295213 17.3405172,40.8295213 Z M3.8987069,10.8140957 C3.54956897,10.8140957 3.25862069,11.0859043 3.21982759,11.4353723 L0.892241379,39.2957447 C0.872844828,39.4898936 0.931034483,39.6646277 1.06681034,39.8005319 C1.20258621,39.9364362 1.37715517,40.0140957 1.57112069,40.0140957 L17.3405172,40.0140957 C17.7090517,40.0140957 18.0193966,39.7034574 18.0193966,39.3345745 C18.0193966,38.9656915 17.7090517,38.6550532 17.3405172,38.6550532 L2.2887931,38.6550532 L4.51939655,12.1537234 L10.1831897,12.1537234 L10.1831897,15.5707447 C10.1831897,15.9396277 10.4935345,16.250266 10.862069,16.250266 C11.2306034,16.250266 11.5409483,15.9396277 11.5409483,15.5707447 L11.5409483,6.19335106 C11.5409483,4.01888298 13.3060345,2.23271277 15.4978448,2.23271277 C17.6702586,2.23271277 19.4547414,3.99946809 19.4547414,6.19335106 L19.4547414,7.80478723 C19.4547414,8.17367021 19.7650862,8.48430851 20.1336207,8.48430851 C20.5021552,8.48430851 20.8125,8.17367021 20.8125,7.80478723 L20.8125,6.19335106 C20.8125,3.26170213 18.4267241,0.893085106 15.5172414,0.893085106 C12.5883621,0.893085106 10.2219828,3.28111702 10.2219828,6.19335106 L10.2219828,10.8140957 L3.8987069,10.8140957 Z" fill="#000000"></path>
                    </g>
                    <g transform="translate(26.767241, 9.901596)" id="Shape">
                        <path d="M13.4030172,5.80505319 C13.4418103,6.36808511 13.9267241,6.79521277 14.4698276,6.79521277 C14.5086207,6.79521277 14.5280172,6.79521277 14.5668103,6.79521277 C15.1681034,6.73696809 15.5948276,6.23218085 15.5560345,5.63031915 L15.2068966,1.5143617 C15.1681034,0.951329787 14.6831897,0.524202128 14.1400862,0.524202128 L1.55172414,0.524202128 C0.950431034,0.524202128 0.465517241,1.00957447 0.465517241,1.61143617 C0.465517241,2.21329787 0.950431034,2.69867021 1.55172414,2.69867021 L13.1508621,2.69867021 L13.4030172,5.80505319 Z" fill="#1D1D1B"></path>
                        <path d="M14.4698276,7.20292553 C13.7133621,7.20292553 13.0538793,6.60106383 12.9956897,5.84388298 L12.762931,3.08696809 L1.55172414,3.08696809 C0.737068966,3.08696809 0.0775862069,2.4268617 0.0775862069,1.61143617 C0.0775862069,0.796010638 0.737068966,0.135904255 1.55172414,0.135904255 L14.1400862,0.135904255 C14.8965517,0.135904255 15.5560345,0.737765957 15.6142241,1.49494681 L15.9633621,5.61090426 C16.0021552,5.99920213 15.8663793,6.3875 15.6142241,6.6981383 C15.362069,7.0087766 14.9935345,7.18351064 14.6056034,7.22234043 C14.5668103,7.20292553 14.5280172,7.20292553 14.4698276,7.20292553 Z M13.8103448,5.7662234 C13.8491379,6.13510638 14.1594828,6.40691489 14.5474138,6.3875 C14.7219828,6.36808511 14.8965517,6.29042553 15.012931,6.15452128 C15.1293103,6.01861702 15.1875,5.84388298 15.1681034,5.66914894 L14.8189655,1.55319149 C14.799569,1.2037234 14.4892241,0.931914894 14.1400862,0.931914894 L1.55172414,0.931914894 C1.18318966,0.931914894 0.872844828,1.24255319 0.872844828,1.61143617 C0.872844828,1.98031915 1.18318966,2.29095745 1.55172414,2.29095745 L13.5193966,2.29095745 L13.8103448,5.7662234 Z" fill="#000000"></path>
                    </g>
                    <g transform="translate(32.780172, 17.861702)" id="Shape">
                        <path d="M1.66810345,26.6954787 L26.1853448,26.6954787 C26.4956897,26.6954787 26.7672414,26.5595745 26.9806034,26.3460106 C27.1939655,26.1324468 27.2909483,25.8218085 27.2521552,25.5305851 L25.2349138,1.55319149 C25.1961207,0.990159574 24.7112069,0.563031915 24.1681034,0.563031915 L13.9267241,0.563031915 C13.325431,0.563031915 12.8405172,1.04840426 12.8405172,1.65026596 C12.8405172,2.25212766 13.325431,2.7375 13.9267241,2.7375 L23.1788793,2.7375 L25.0021552,24.5404255 L2.83189655,24.5404255 L4.65517241,2.71808511 L8.57327586,2.71808511 L8.57327586,7.72712766 C8.57327586,10.5228723 10.8426724,12.7944149 13.6357759,12.7944149 C16.4288793,12.7944149 18.6982759,10.5228723 18.6982759,7.72712766 L18.6982759,5.55265957 C18.6982759,4.95079787 18.2133621,4.46542553 17.612069,4.46542553 C17.0107759,4.46542553 16.5258621,4.95079787 16.5258621,5.55265957 L16.5258621,7.72712766 C16.5258621,9.31914894 15.2262931,10.6393617 13.6163793,10.6393617 C12.0258621,10.6393617 10.7068966,9.33856383 10.7068966,7.72712766 L10.7068966,1.65026596 C10.7068966,1.04840426 10.2219828,0.563031915 9.62068966,0.563031915 L3.64655172,0.563031915 C3.08405172,0.563031915 2.61853448,0.990159574 2.57974138,1.55319149 L0.581896552,25.5111702 C0.5625,25.8218085 0.659482759,26.1130319 0.853448276,26.3265957 C1.06681034,26.5595745 1.35775862,26.6954787 1.66810345,26.6954787 Z" fill="#1D1D1B"></path>
                        <path d="M26.1659483,27.0837766 L1.66810345,27.0837766 C1.26077586,27.0837766 0.853448276,26.9090426 0.581896552,26.5984043 C0.310344828,26.287766 0.155172414,25.8800532 0.193965517,25.4723404 L2.2112069,1.5143617 C2.26939655,0.757180851 2.92887931,0.155319149 3.68534483,0.155319149 L9.65948276,0.155319149 C10.4741379,0.155319149 11.1336207,0.815425532 11.1336207,1.63085106 L11.1336207,7.70771277 C11.1336207,9.08617021 12.2586207,10.212234 13.6357759,10.212234 C15.012931,10.212234 16.137931,9.08617021 16.137931,7.70771277 L16.137931,5.53324468 C16.137931,4.71781915 16.7974138,4.05771277 17.612069,4.05771277 C18.4267241,4.05771277 19.0862069,4.71781915 19.0862069,5.53324468 L19.0862069,7.70771277 C19.0862069,10.7170213 16.6422414,13.1827128 13.6163793,13.1827128 C10.5905172,13.1827128 8.14655172,10.7364362 8.14655172,7.70771277 L8.14655172,3.10638298 L5.04310345,3.10638298 L3.27801724,24.093883 L24.5560345,24.093883 L22.7909483,3.10638298 L13.9073276,3.10638298 C13.0926724,3.10638298 12.4331897,2.4462766 12.4331897,1.63085106 C12.4331897,0.815425532 13.0926724,0.155319149 13.9073276,0.155319149 L24.1487069,0.155319149 C24.9051724,0.155319149 25.5646552,0.757180851 25.6228448,1.5143617 L27.6400862,25.4723404 C27.6788793,25.8800532 27.5431034,26.287766 27.2521552,26.5984043 C26.9806034,26.9090426 26.5926724,27.0837766 26.1659483,27.0837766 Z M3.66594828,0.970744681 C3.31681034,0.970744681 3.02586207,1.24255319 2.98706897,1.59202128 L0.969827586,25.55 C0.950431034,25.7441489 1.00862069,25.918883 1.14439655,26.0547872 C1.28017241,26.1906915 1.45474138,26.2683511 1.6487069,26.2683511 L26.1659483,26.2683511 C26.3599138,26.2683511 26.5344828,26.1906915 26.6702586,26.0547872 C26.8060345,25.918883 26.8642241,25.724734 26.8448276,25.55 L24.8275862,1.59202128 C24.8081897,1.24255319 24.4978448,0.970744681 24.1487069,0.970744681 L13.9073276,0.970744681 C13.5387931,0.970744681 13.2284483,1.28138298 13.2284483,1.65026596 C13.2284483,2.01914894 13.5387931,2.32978723 13.9073276,2.32978723 L23.5280172,2.32978723 L25.4288793,24.9481383 L2.38577586,24.9481383 L4.28663793,2.32978723 L8.98060345,2.32978723 L8.98060345,7.74654255 C8.98060345,10.3093085 11.075431,12.406117 13.6357759,12.406117 C16.1961207,12.406117 18.2909483,10.3093085 18.2909483,7.74654255 L18.2909483,5.57207447 C18.2909483,5.20319149 17.9806034,4.89255319 17.612069,4.89255319 C17.2435345,4.89255319 16.9331897,5.20319149 16.9331897,5.57207447 L16.9331897,7.74654255 C16.9331897,9.57154255 15.4590517,11.0470745 13.6357759,11.0470745 C11.8125,11.0470745 10.3383621,9.57154255 10.3383621,7.74654255 L10.3383621,1.66968085 C10.3383621,1.30079787 10.0280172,0.990159574 9.65948276,0.990159574 L3.66594828,0.990159574 L3.66594828,0.970744681 Z" fill="#000000"></path>
                    </g>
                    <path d="M89.5926724,63.8167553 L81.5625,55.9148936 L87.6724138,52.6726064 C88.0603448,52.4784574 88.2737069,52.0707447 88.2349138,51.6242021 C88.1961207,51.1970745 87.924569,50.8281915 87.5172414,50.6922872 L64.1056034,42.6739362 C63.7176724,42.5380319 63.2715517,42.6351064 62.9806034,42.9457447 C62.6896552,43.2369681 62.5926724,43.6835106 62.7284483,44.0718085 L71.0689655,67.3890957 C71.2047414,67.7968085 71.5926724,68.068617 72.0193966,68.1074468 C72.4655172,68.1268617 72.8534483,67.9132979 73.0474138,67.525 L76.2284483,61.3510638 L84.2586207,69.2529255 C84.4525862,69.4470745 84.7241379,69.5635638 85.0150862,69.5635638 C85.0150862,69.5635638 85.0150862,69.5635638 85.0150862,69.5635638 C85.3060345,69.5635638 85.5775862,69.4470745 85.7715517,69.2335106 L89.5926724,65.331117 C90.0193966,64.9234043 90.0193966,64.243883 89.5926724,63.8167553 Z M84.9956897,66.9619681 L76.6939655,58.7882979 C76.5,58.5941489 76.2090517,58.4776596 75.9375,58.4776596 C75.8793103,58.4776596 75.8211207,58.4776596 75.762931,58.4970745 C75.4331897,58.5553191 75.1228448,58.768883 74.9676724,59.0601064 L72.2715517,64.3215426 L65.5215517,45.450266 L84.4525862,51.9348404 L79.2349138,54.7111702 C78.924569,54.8664894 78.7306034,55.1771277 78.6724138,55.5071809 C78.6142241,55.8566489 78.7306034,56.1867021 78.9827586,56.4390957 L87.2844828,64.612766 L84.9956897,66.9619681 Z" id="Shape" fill="#1D1D1B"></path>
                </g>
            </g>
        </g>
    </g>
</svg>