<?xml version="1.0" encoding="UTF-8"?>
<svg width="80px" height="82px" viewBox="0 0 80 82" version="1.1" xmlns="http://www.w3.org/2000/svg" xmlns:xlink="http://www.w3.org/1999/xlink">
    <!-- Generator: Sketch 49.1 (51147) - http://www.bohemiancoding.com/sketch -->
    <title>chat (1)</title>
    <desc>Created with Sketch.</desc>
    <defs></defs>
    <g id="Page-1" stroke="none" stroke-width="1" fill="none" fill-rule="evenodd">
        <g id="Taager_Dark" transform="translate(-1198.000000, -2762.000000)" fill-rule="nonzero">
            <g id="chat-(1)" transform="translate(1198.000000, 2762.000000)">
                <path d="M53.6520165,25.9387755 L25.5146502,25.9387755 C23.8495231,25.9387755 22.5,27.249765 22.5,28.8673469 C22.5,30.4849289 23.8495231,31.7959184 25.5146502,31.7959184 L53.6520165,31.7959184 C55.3171436,31.7959184 56.6666667,30.4849289 56.6666667,28.8673469 C56.6666667,27.249765 55.3171436,25.9387755 53.6520165,25.9387755 Z" id="Shape" fill="#FFFFFF"></path>
                <path d="M53.6520165,37.6530612 L25.5146502,37.6530612 C23.8495231,37.6530612 22.5,38.9640507 22.5,40.5816327 C22.5,42.1992146 23.8495231,43.5102041 25.5146502,43.5102041 L53.6520165,43.5102041 C55.3171436,43.5102041 56.6666667,42.1992146 56.6666667,40.5816327 C56.6666667,38.9640507 55.3171436,37.6530612 53.6520165,37.6530612 Z" id="Shape" fill="#FFFFFF"></path>
                <path d="M53.6520165,50.2040816 L25.5146502,50.2040816 C23.8495231,50.2040816 22.5,51.5150711 22.5,53.1326531 C22.5,54.750235 23.8495231,56.0612245 25.5146502,56.0612245 L53.6520165,56.0612245 C55.3171436,56.0612245 56.6666667,54.750235 56.6666667,53.1326531 C56.6666667,51.5150711 55.3171436,50.2040816 53.6520165,50.2040816 Z" id="Shape" fill="#FFFFFF"></path>
                <path d="M40,0 C17.9443592,0 0,18.0726719 0,40.2860234 C0,45.3335078 0.921516089,50.2719258 2.7432397,54.9736328 C4.15898737,58.5851563 6.03445945,61.902793 8.33006019,64.8626406 L2.87697482,77.7398437 C2.43951308,78.7720508 2.59853225,79.9612109 3.29010662,80.8403086 C3.87243482,81.5808711 4.75340102,82 5.67078261,82 C5.84395449,82 6.01919361,81.9857461 6.1933196,81.9540352 L26.8526131,78.3231328 C30.9902919,79.8162695 35.4086395,80.5720469 40,80.5720469 C62.0557998,80.5720469 80,62.499375 80,40.2860234 C80,18.0726719 62.0557998,0 40,0 Z M40,74.4527969 C35.8592998,74.4527969 31.8987684,73.7327344 28.228924,72.3119883 C27.7154511,72.1130742 27.1576119,72.0570195 26.6167877,72.1539141 L10.6601681,74.9585703 L14.6420081,65.5561172 C15.097757,64.4801875 14.9042307,63.2357734 14.143801,62.3515508 C11.7357737,59.5529805 9.80146457,56.3147813 8.40002862,52.7380117 C6.8577017,48.7594102 6.07596346,44.5695625 6.07596346,40.2860234 C6.07596346,21.4465234 21.294098,6.11941016 40,6.11941016 C58.705902,6.11941016 73.9240365,21.4465234 73.9240365,40.2860234 C73.9240365,59.1255234 58.705902,74.4527969 40,74.4527969 Z" id="Shape" fill="#29B6AB"></path>
            </g>
        </g>
    </g>
</svg>