<?xml version="1.0" encoding="UTF-8"?>
<svg width="228px" height="120px" viewBox="0 0 228 120" version="1.1" xmlns="http://www.w3.org/2000/svg" xmlns:xlink="http://www.w3.org/1999/xlink">
    <!-- Generator: Sketch 49.1 (51147) - http://www.bohemiancoding.com/sketch -->
    <title>test3</title>
    <desc>Created with Sketch.</desc>
    <defs></defs>
    <g id="Page-1" stroke="none" stroke-width="1" fill="none" fill-rule="evenodd">
        <g id="Taager_Dark" transform="translate(-111.000000, -1470.000000)" fill-rule="nonzero">
            <g id="Group-2" transform="translate(111.000000, 1444.000000)">
                <g id="test3" transform="translate(0.000000, 26.000000)">
                    <polygon id="Shape" fill="#FFB9AE" points="45.8436874 68.1624365 39.1270541 67.3401015 36.5835671 57.213198 46.8032064 56.0406091 48.509018 58.2791878"></polygon>
                    <g id="Group" transform="translate(0.000000, 20.406091)">
                        <ellipse id="Oval" fill="#333333" cx="9.30581162" cy="19.8274112" rx="9.18396794" ry="9.18274112"></ellipse>
                        <path d="M45.006012,48.319797 C48.539479,41.2385787 48.4785571,33.9593909 44.7775551,26.6497462 L38.1370741,30 C40.6957916,35.0558376 40.8024048,39.9137056 38.4416834,44.786802 C38,45.7005076 38.3350701,46.7969543 39.2032064,47.3147208 L42.2492986,49.1116751 C43.254509,49.6903553 44.5034068,49.3248731 45.006012,48.319797 Z" id="Shape" fill="#333333"></path>
                        <path d="M5.49819639,35.4060914 C5.42204409,36.5329949 6.39679359,37.4314721 7.50861723,37.2639594 L51.1286573,31.035533 C54.2052104,30.5939086 56.5963928,27.7614213 56.8248497,24.2893401 L57.0380762,21.0761421 C57.2665331,17.6954315 55.3627255,14.6345178 52.4689379,13.7055838 L9.99118236,0.21319797 C8.89458918,-0.137055838 7.76753507,0.639593909 7.69138277,1.78172589 L5.49819639,35.4060914 Z" id="Shape" fill="#F6BE31"></path>
                        <path d="M53.0476954,13.9492386 C55.6064128,15.0761421 57.2360721,17.9390863 57.0380762,21.0913706 L56.8248497,24.3045685 C56.5963928,27.7766497 54.2052104,30.6091371 51.1286573,31.0507614 L7.50861723,37.2791878 C6.39679359,37.4314721 5.42204409,36.5329949 5.49819639,35.4213198 L5.83326653,30.1827411 L33.8725451,28.4771574 C42.6757515,27.928934 50.1995992,22.142132 53.0476954,13.9492386 Z" id="Shape" fill="#EDAF24"></path>
                        <polygon id="Shape" fill="#198D84" points="30.0496994 34.0507614 16.7230461 35.9543147 19.0685371 3.12182741 30.0496994 6.60913706"></polygon>
                        <polygon id="Shape" fill="#106760" points="30.0496994 34.0507614 16.7230461 35.9543147 17.1799599 29.4822335 30.0496994 28.6903553"></polygon>
                    </g>
                    <path d="M129.900601,13.5837563 L150.918637,48.2436548 L95.1903808,61.142132 C100.323046,54.8071066 101.480561,46.1269036 98.1907816,38.6649746 L95.1903808,31.8730964 L129.900601,13.5837563 Z" id="Shape" fill="#243644"></path>
                    <polygon id="Shape" fill="#198D84" points="135.276954 47.7411168 156.188377 45.2741117 158.899399 87.0152284 166.925852 119.893401 109.065331 119.893401 110.69499 98.6649746 95.1903808 61.142132 109.171944 54.2436548"></polygon>
                    <polygon id="Shape" fill="#18B286" points="122.544289 52.0964467 154.254108 49.1116751 157.026052 58.1725888 156.188377 45.2741117 135.276954 47.7411168 109.171944 54.2436548 95.1903808 61.142132 96.1955912 63.5939086 96.1955912 63.5939086"></polygon>
                    <polygon id="Shape" fill="#FFD8C9" points="109.171944 39.9593909 113.558317 53.8477157 119.482966 62.7411168 129.367535 47.6954315 125.57515 35.6345178"></polygon>
                    <path d="M109.171944,39.9593909 L111.791583,48.2284264 C114.33507,48.0761421 116.893788,47.4822335 119.361122,46.3553299 C122.468136,44.9390863 125.072545,42.8680203 127.082966,40.3857868 L125.590381,35.6345178 L109.171944,39.9593909 Z" id="Shape" fill="#FFB9AE"></path>
                    <polygon id="Shape" fill="#06101D" points="128.179559 43.9035533 135.276954 47.7411168 130.540281 66 119.482966 62.7411168 129.367535 47.6954315"></polygon>
                    <polygon id="Shape" fill="#06101D" points="112.141884 49.3705584 109.171944 54.2436548 113.436473 68.1624365 119.482966 62.7411168 113.558317 53.8477157"></polygon>
                    <ellipse id="Oval" fill="#FFD8C9" cx="111.426052" cy="24" rx="21.2160321" ry="21.213198"></ellipse>
                    <path d="M118.980361,18.5482234 L127.616032,10.3096447 C128.849699,11.7715736 129.748297,13.4314721 130.738277,15.1827411 C133.068537,19.3096447 133.51022,23.177665 132.52024,27.213198 C130.357515,14.4822335 118.980361,18.5482234 118.980361,18.5482234 Z" id="Shape" fill="#243644"></path>
                    <ellipse id="Oval" fill="#FFD8C9" cx="128.240481" cy="19.1573604" rx="3.21362725" ry="3.21319797"></ellipse>
                    <path d="M129.382766,12.715736 L91.1086172,30.106599 C88.092986,20.1015228 92.8753507,9.15228426 102.653307,4.70558376 C112.431263,0.258883249 123.823647,3.85279188 129.382766,12.715736 Z" id="Shape" fill="#29B6AB"></path>
                    <path d="M82.0312625,34.2335025 C82.2597194,34.7360406 82.8537074,34.964467 83.3563126,34.7360406 L129.900601,13.5989848 C129.565531,13.0050761 129.2,12.4263959 128.819238,11.8781726 L82.5338677,32.893401 C82.0160321,33.1218274 81.8028056,33.715736 82.0312625,34.2335025 Z" id="Shape" fill="#29B6AB"></path>
                    <polygon id="Shape" fill="#06101D" points="156.188377 45.2741117 184.867335 65.4213198 173.825251 83.3604061 158.137876 75.319797"></polygon>
                    <path d="M175.591984,78.3654822 L173.855711,77.7258883 C165.311423,74.5888325 159.097395,67.142132 157.528657,58.1878173 L156.721443,53.5888325 L158.137876,75.319797 L173.063727,82.9796954 L175.591984,78.3654822 Z" id="Shape" fill="#152E48"></path>
                    <polygon id="Shape" fill="#06101D" points="95.1903808 61.142132 77.4925852 85.7817259 91.8396794 99.1522843 105.699399 86.5736041"></polygon>
                    <path d="M92.4488978,93.2588832 L89.4637275,95.6497462 L92.3727455,98.6497462 L105.684168,86.5888325 L100.10982,73.0964467 C101.404409,80.6954315 98.4801603,88.4162437 92.4488978,93.2588832 Z" id="Shape" fill="#152E48"></path>
                    <path d="M91.8396794,99.1522843 L51.1743487,61.248731 L45.8436874,68.1624365 L72.9995992,105.045685 C75.6953908,108.700508 80.9803607,109.203046 84.3158317,106.111675 L91.8396794,99.1522843 Z" id="Shape" fill="#FFD8C9"></path>
                    <path d="M82.2140281,103.203046 C79.7314629,105.106599 76.1827655,104.71066 74.1723447,102.304569 L46.787976,69.4568528 L72.9995992,105.060914 C75.6953908,108.715736 80.9803607,109.218274 84.3158317,106.126904 L91.8396794,99.1522843 L76.3350701,84.7005076 L83.3258517,92.9390863 C85.945491,96.0456853 85.4428858,100.720812 82.2140281,103.203046 Z" id="Shape" fill="#FFB9AE"></path>
                    <path d="M173.825251,83.3604061 L200.981162,39.2436548 L207.606413,43.6598985 L191.766733,80.7715736 C189.451703,86.2081218 182.917836,88.4467005 177.754709,85.5532995 L173.825251,83.3604061 Z" id="Shape" fill="#FFD8C9"></path>
                    <path d="M206.327054,46.6598985 L187.806814,80.5583756 C186.283768,83.3451777 182.978758,84.6091371 179.978357,83.5583756 C178.165932,82.9187817 177.297796,80.8477157 178.135471,79.1116751 L184.303808,66.319797 L173.825251,83.3604061 L177.754709,85.5532995 C182.917836,88.4467005 189.451703,86.2233503 191.766733,80.7715736 L206.327054,46.6598985 Z" id="Shape" fill="#FFB9AE"></path>
                    <ellipse id="Oval" fill="#FFB9AE" cx="183.222445" cy="83.7411168" rx="2.68056112" ry="2.68020305"></ellipse>
                    <ellipse id="Oval" fill="#29B6AB" cx="99.195992" cy="2.4213198" rx="2.3759519" ry="2.37563452"></ellipse>
                    <path d="M118.980361,18.5482234 C115.050902,26.786802 106.537074,31.857868 97.4140281,31.3857868 L91.4284569,31.0812183" id="Shape" fill="#243644"></path>
                    <path d="M200.981162,39.2436548 L209.342685,35.2994924 L226.949098,35.6649746 C227.741082,35.680203 228.213226,36.5482234 227.786774,37.2182741 C227.634469,37.4619289 227.375551,37.6446701 227.086172,37.6903553 L220.262926,39.2588832 L207.606413,43.6751269 L200.981162,39.2436548 Z" id="Shape" fill="#FFD8C9"></path>
                    <path d="M200.981162,39.2436548 L201.483768,36.5329949 C201.834068,34.6294416 203.037275,32.9847716 204.743086,32.071066 L206.540281,31.1116751 C207.636874,30.5329949 208.946693,31.3248731 208.946693,32.5583756 C208.946693,33 208.763928,33.4263959 208.444088,33.7309645 L207.606413,34.5380711 L209.327455,35.2994924 L200.981162,39.2436548 Z" id="Shape" fill="#FFD8C9"></path>
                    <path d="M185.796393,63.9137056 L181.044489,60.1979695 C180.435271,59.7106599 179.521443,59.9238579 179.186373,60.6395939 L169.454108,81.1218274 C169.17996,81.6852792 169.393186,82.3553299 169.911022,82.6903553 L172.012826,83.9847716 C172.591583,84.3350254 173.337876,84.1522843 173.688176,83.5888325 L185.796393,63.9137056 Z" id="Shape" fill="#ECEFF0"></path>
                    <path d="M91.793988,99.1218274 L75.3603206,83.8020305 L79.7619238,79.0507614 C80.2645291,78.5177665 81.1022044,78.5329949 81.5895792,79.0812183 L95.7386774,95.6497462 C96.1803607,96.1675127 96.1194389,96.9441624 95.5863727,97.3857868 L93.4084168,99.1675127 C92.9210421,99.5482234 92.2356713,99.5329949 91.793988,99.1218274 Z" id="Shape" fill="#ECEFF0"></path>
                    <path d="M99.4549098,12.319797 C99.0436874,12.319797 98.6476954,12.1522843 98.3430862,11.8477157 C97.7643287,11.2385787 97.7947896,10.2791878 98.404008,9.70050761 C102.059319,6.25888325 106.765531,4.35532995 111.654509,4.35532995 C112.492184,4.35532995 113.177555,5.04060914 113.177555,5.87817259 C113.177555,6.71573604 112.492184,7.40101523 111.654509,7.40101523 C107.542285,7.40101523 103.582365,9 100.505812,11.9086294 C100.201202,12.1827411 99.8356713,12.319797 99.4549098,12.319797 Z" id="Shape" fill="#F9D88F" opacity="0.3"></path>
                    <path d="M51.1591182,61.248731 L51.1591182,58.3096447 C51.1591182,56.9543147 50.290982,55.7360406 49.0116232,55.2944162 L46.757515,54.5177665 C45.7218437,54.1522843 44.5643287,54.5482234 43.9551102,55.4619289 C43.4829659,56.177665 43.7114228,57.1370558 44.442485,57.5786802 L47.1230461,59.1319797 L44.3967936,63.6548223 C43.4220441,65.284264 44.0921844,67.4162437 45.8436874,68.177665 L51.1591182,61.248731 Z" id="Shape" fill="#FFD8C9"></path>
                    <path d="M34.2685371,60.4416244 L35.9895792,65.5279188 C36.4008016,66.7309645 37.5278557,67.5532995 38.8072144,67.5532995 L40.741483,67.5532995 C41.9294589,67.5532995 42.858517,66.4873096 42.6757515,65.3147208 L41.4268537,56.8324873 C41.2440882,55.5989848 40.0408818,54.7766497 38.8224449,55.0659898 L36.9947896,55.4923858 C34.8168337,56.0101523 33.5527054,58.3096447 34.2685371,60.4416244 Z" id="Shape" fill="#FFD8C9"></path>
                    <path d="M157.437275,64.3248731 L156.645291,68.0406091 C151.771543,90.8527919 136.46493,110.055838 115.30982,119.908629 L166.925852,119.908629 L158.899399,87.0304569 L157.437275,64.3248731 Z" id="Shape" fill="#106760"></path>
                    <path d="M155.442084,92.8629442 C148.481764,101.984772 135.535872,113.604061 124.56994,119.893401 L115.30982,119.893401 L155.442084,92.8629442 Z" id="Shape" fill="#198D84"></path>
                    <path d="M187.867735,70.2791878 C187.608818,70.2791878 187.3499,70.2182741 187.106212,70.0812183 C186.37515,69.6548223 186.131463,68.7258883 186.557916,67.9949239 L194.371142,54.5025381 C194.797595,53.7715736 195.726653,53.5279188 196.457715,53.9543147 C197.188778,54.3807107 197.432465,55.3096447 197.006012,56.0406091 L189.192786,69.5329949 C188.903407,70.0050761 188.385571,70.2791878 187.867735,70.2791878 Z" id="Shape" fill="#FFE6DE"></path>
                    <path d="M198.864128,51.2741117 C198.60521,51.2741117 198.346293,51.213198 198.102605,51.0761421 C197.371543,50.6497462 197.127856,49.7208122 197.554309,48.9898477 L199.656112,45.3654822 C200.082565,44.6345178 201.011623,44.3908629 201.742685,44.8172589 C202.473747,45.2436548 202.717435,46.1725888 202.290982,46.9035533 L200.189178,50.5279188 C199.8998,51 199.397194,51.2741117 198.864128,51.2741117 Z" id="Shape" fill="#FFE6DE"></path>
                    <path d="M70.8368737,88.3553299 C70.4256513,88.3553299 70.0144289,88.1878173 69.7098196,87.8680203 L60.0232465,77.3299492 C59.4597194,76.7055838 59.4901804,75.7461929 60.1146293,75.1827411 C60.7390782,74.6192893 61.6985972,74.6497462 62.2621242,75.2741117 L71.9486974,85.8121827 C72.5122244,86.4365482 72.4817635,87.3959391 71.8573146,87.9593909 C71.5831663,88.2182741 71.2024048,88.3553299 70.8368737,88.3553299 Z" id="Shape" fill="#FFE6DE"></path>
                    <path d="M107.968737,73.2639594 C107.374749,73.2639594 106.811222,72.9137056 106.567535,72.319797 L105.120641,68.8629442 C104.800802,68.0862944 105.166333,67.1878173 105.943086,66.8680203 C106.71984,66.5482234 107.618437,66.9137056 107.938277,67.6903553 L109.38517,71.1472081 C109.70501,71.9238579 109.339479,72.822335 108.562725,73.142132 C108.364729,73.2182741 108.166733,73.2639594 107.968737,73.2639594 Z" id="Shape" fill="#18B286"></path>
                    <path d="M87.7883768,80.177665 C87.4533066,80.177665 87.1182365,80.071066 86.8288577,79.8426396 C86.1739479,79.3096447 86.0673347,78.3502538 86.6004008,77.6954315 L93.3779559,69.2741117 C93.911022,68.6192893 94.8705411,68.5126904 95.5254509,69.0456853 C96.1803607,69.5786802 96.2869739,70.5380711 95.7539078,71.1928934 L88.9763527,79.6142132 C88.6717435,79.9796954 88.2300601,80.177665 87.7883768,80.177665 Z" id="Shape" fill="#152E48"></path>
                    <path d="M172.880962,64.2639594 C172.576353,64.2639594 172.271743,64.1725888 172.012826,63.9898477 L158.884168,54.8375635 C158.198798,54.3502538 158.031263,53.4060914 158.503407,52.7208122 C158.990782,52.035533 159.93507,51.8680203 160.620441,52.3401015 L173.749098,61.4923858 C174.434469,61.9796954 174.602004,62.9238579 174.12986,63.6091371 C173.840481,64.035533 173.368337,64.2639594 172.880962,64.2639594 Z" id="Shape" fill="#152E48"></path>
                    <ellipse id="Oval" fill="#FFB9AE" cx="79.1679359" cy="104.573604" rx="2.9242485" ry="2.92385787"></ellipse>
                    <ellipse id="Oval" fill="#18B286" cx="152.974749" cy="49.1116751" rx="3.07655311" ry="3.07614213"></ellipse>
                    <ellipse id="Oval" fill="#18B286" cx="148.02485" cy="52.8274112" rx="1.4012024" ry="1.40101523"></ellipse>
                    <ellipse id="Oval" fill="#FFB9AE" cx="179.7499" cy="81.0609137" rx="1" ry="1"></ellipse>
                    <ellipse id="Oval" fill="#FFB9AE" cx="185.918236" cy="79.5380711" rx="1.09659319" ry="1.0964467"></ellipse>
                    <ellipse id="Oval" fill="#FFB9AE" cx="75.5583166" cy="99.4416244" rx="1.93426854" ry="1.93401015"></ellipse>
                    <ellipse id="Oval" fill="#FFB9AE" cx="82.0921844" cy="99.9441624" rx="1" ry="1"></ellipse>
                    <polygon id="Shape" fill="#243644" points="122.864128 17.9238579 127.113427 21.7614213 125.346693 17.7715736"></polygon>
                </g>
            </g>
        </g>
    </g>
</svg>