<?xml version="1.0" encoding="UTF-8"?>
<svg width="102px" height="140px" viewBox="0 0 102 140" version="1.1" xmlns="http://www.w3.org/2000/svg" xmlns:xlink="http://www.w3.org/1999/xlink">
    <!-- Generator: Sketch 49.1 (51147) - http://www.bohemiancoding.com/sketch -->
    <title>test</title>
    <desc>Created with Sketch.</desc>
    <defs></defs>
    <g id="Page-1" stroke="none" stroke-width="1" fill="none" fill-rule="evenodd">
        <g id="Taager_Dark" transform="translate(-491.000000, -1448.000000)" fill-rule="nonzero">
            <g id="Group-2" transform="translate(111.000000, 1444.000000)">
                <g id="test" transform="translate(380.000000, 4.000000)">
                    <rect id="Rectangle-path" fill="#D1D1D1" x="0.0707718994" y="87.7380353" width="92.4369471" height="52.2619647" rx="16.3333333"></rect>
                    <g id="Group" transform="translate(5.219428, 0.000000)">
                        <g>
                            <polygon id="Shape" fill="#29B6AB" points="31.9888985 38.6851385 21.435039 42.5025189 24.3986123 72.3010076 22.9212489 83.5944584 58.9264527 83.5944584 57.5640937 72.6448363 60.2799653 42.3967254 49.947268 38.7292191"></polygon>
                            <path d="M23.1689506,60.1523929 C23.1689506,60.1523929 25.9467476,81.0465995 36.7129228,83.5944584 L22.9212489,83.5944584 L24.3897658,72.3010076 L23.1689506,60.1523929 Z" id="Shape" fill="#ED7217"></path>
                            <path d="M58.7052905,60.1523929 C58.7052905,60.1523929 56.4759757,82.1574307 45.8513443,83.5944584 L58.9264527,83.5944584 L57.6348656,71.8778338 L58.7052905,60.1523929 Z" id="Shape" fill="#ED7217"></path>
                            <path d="M22.3462272,51.7858942 L22.5673894,48.0566751 C22.7443192,45.1120907 24.8763226,42.6435768 27.7779705,42.0440806 L40.47268,39.4256927 L53.9989592,42.3526448 C56.8032958,42.9609572 58.8910668,45.3236776 59.1387684,48.1712846 L59.4483955,51.7858942 L60.2799653,42.3967254 L49.947268,38.7292191 L31.9888985,38.6851385 L21.435039,42.5025189 L22.3462272,51.7858942 Z" id="Shape" fill="#198D84" opacity="0.3"></path>
                            <ellipse id="Oval" fill="#FFFFFF" cx="50.8142238" cy="51.7858942" rx="3.04319167" ry="3.03274559"></ellipse>
                            <ellipse id="Oval" fill="#29B6AB" cx="50.8142238" cy="51.7858942" rx="2.03469211" ry="2.02770781"></ellipse>
                            <path d="M19.0730269,68.8274559 L20.4353859,69.0654912 C20.6919341,69.1095718 20.8688638,69.3299748 20.8688638,69.5768262 L20.8688638,76.2153652 C20.8688638,76.5680101 20.5238508,76.8148615 20.1876843,76.7178841 L19.019948,76.3740554 L19.0730269,68.8274559 Z" id="Shape" fill="#29B6AB"></path>
                            <path d="M21.435039,42.5025189 L1.00849957,66.3060453 C-0.884648742,68.5100756 0.159236774,71.9307305 2.96357329,72.7065491 L18.4980052,76.9823678 C18.9491761,77.1057935 19.3915004,76.7707809 19.3915004,76.3035264 L19.3826539,68.4748111 C19.3826539,68.1574307 19.1791847,67.884131 18.8695577,67.7959698 L14.5259324,66.5352645 L23.1866435,60.1259446 L21.435039,42.5025189 Z" id="Shape" fill="#106760"></path>
                            <polygon id="Shape" fill="#177C73" points="21.8773634 46.9458438 21.107719 57.6397985 11.5269731 65.6007557 14.5347788 66.5440806 23.1866435 60.1435768"></polygon>
                            <path d="M62.8100607,68.4219144 L61.2973114,68.6070529 C61.0319167,68.6423174 60.8284475,68.8627204 60.8284475,69.1360202 L60.8284475,76.2506297 C60.8284475,76.6120907 61.182307,76.8677582 61.52732,76.7531486 L62.6508239,76.3740554 L62.8100607,68.4219144 Z" id="Shape" fill="#29B6AB"></path>
                            <path d="M60.2799653,42.3967254 L80.547268,67.6725441 C81.9007806,69.3652393 81.0957502,71.8866499 79.0079792,72.4861461 L63.0577624,76.9823678 C62.6065915,77.1057935 62.1554206,76.7707809 62.1554206,76.3035264 L62.1554206,68.465995 C62.1554206,68.1574307 62.3500434,67.8929471 62.6419775,67.7959698 L66.9502168,66.4030227 L58.6787511,60.1523929 L60.2799653,42.3967254 Z" id="Shape" fill="#106760"></path>
                            <polygon id="Shape" fill="#177C73" points="59.7934085 47.9156171 60.6161318 57.7279597 70.0376409 65.3891688 66.9590633 66.4030227 58.6875976 60.1523929"></polygon>
                            <polygon id="Shape" fill="#06101D" points="60.3949696 95.8753149 21.435039 95.8753149 23.1070252 82.175063 58.767216 82.175063"></polygon>
                            <path d="M66.5167389,90.1889169 C66.5167389,85.7632242 62.9162186,82.175063 58.4752819,82.175063 C54.0343452,82.175063 50.4338248,85.7632242 50.4338248,90.1889169 L46.2317433,132.338791 L56.245967,132.338791 L66.1982654,92.4193955 L66.1894189,92.4193955 C66.4105811,91.7141058 66.5167389,90.9647355 66.5167389,90.1889169 Z" id="Shape" fill="#0B1725"></path>
                            <path d="M66.2071119,92.4282116 C66.4017346,91.7141058 66.5167389,90.9647355 66.5167389,90.1889169 C66.5167389,90.0037783 66.5078925,89.8274559 66.499046,89.6511335 C63.8450997,97.0831234 57.8560278,114.90932 54.7243712,124.236776 C53.5654814,127.692695 50.1507372,129.870277 46.5148309,129.473552 L46.2317433,132.347607 L56.245967,132.347607 L66.2071119,92.4282116 Z" id="Shape" fill="#152E48"></path>
                            <path d="M30.5026886,88.9017632 C29.8834345,85.0843829 26.5660017,82.175063 22.5673894,82.175063 C18.1264527,82.175063 14.5259324,85.7632242 14.5259324,90.1889169 C14.5259324,91.1498741 14.6940156,92.0667506 15.0036427,92.9219144 L28.1052905,132.338791 L38.0575889,132.338791 L30.5026886,88.9017632 Z" id="Shape" fill="#0B1725"></path>
                            <path d="M37.624111,129.7733 C33.4220295,130.011335 29.529575,127.56927 27.9195143,123.698992 L14.755941,92.093199 C14.8267129,92.3753149 14.9063313,92.6574307 15.0036427,92.9219144 L28.1052905,132.338791 L38.0575889,132.338791 L37.624111,129.7733 Z" id="Shape" fill="#152E48"></path>
                            <path d="M46.4794449,35.7141058 L46.4794449,37.8740554 L41.0211622,46.9458438 L49.2660885,41.4974811 C50.654987,40.5806045 51.0884649,38.7380353 50.2568951,37.2921914 C49.6907199,36.3224181 48.6468343,35.7229219 47.5233304,35.7229219 L46.4794449,35.7229219 L46.4794449,35.7141058 Z" id="Shape" fill="#0B1725"></path>
                            <path d="M41.0211622,46.9458438 L35.4744146,37.8740554 L35.4744146,35.7141058 L34.4305291,35.7141058 C33.3424111,35.7141058 32.325065,36.2695214 31.7500434,37.1952141 L31.7323504,37.2304786 C30.8211622,38.6851385 31.2457936,40.6070529 32.687771,41.5415617 L41.0211622,46.9458438 Z" id="Shape" fill="#0B1725"></path>
                            <polygon id="Shape" fill="#FFD8C9" points="46.4794449 37.8740554 41.0211622 46.9458438 35.4744146 37.8740554 35.4744146 30.5919395 46.4794449 30.5919395"></polygon>
                            <path d="M35.4744146,36.0579345 C36.9871639,36.7896725 38.6856895,37.1952141 40.47268,37.1952141 C42.6754553,37.1952141 44.7278404,36.5780856 46.4794449,35.5025189 L46.4794449,30.5919395 L35.4744146,30.5919395 L35.4744146,36.0579345 Z" id="Shape" fill="#FFB9AE"></path>
                            <g transform="translate(26.804857, 0.000000)">
                                <path d="M15.4194276,34.197733 L11.925065,34.197733 C6.05984389,34.197733 1.30043365,29.4634761 1.30043365,23.6095718 L1.30043365,14.1146096 C1.30043365,12.836272 2.34431917,11.7959698 3.62705984,11.7959698 L26.0352125,11.7959698 L26.0352125,23.6007557 C26.0352125,29.4546599 21.2846487,34.197733 15.4194276,34.197733 Z" id="Shape" fill="#243644"></path>
                                <ellipse id="Oval" fill="#FFD8C9" cx="25.1771032" cy="21.6788413" rx="2.83087598" ry="2.82115869"></ellipse>
                                <ellipse id="Oval" fill="#FFD8C9" cx="2.83972246" cy="21.6788413" rx="2.83087598" ry="2.82115869"></ellipse>
                                <ellipse id="Oval" fill="#FFD8C9" cx="13.6678231" cy="24.279597" rx="11.4827407" ry="11.4433249"></ellipse>
                                <path d="M24.9824805,23.7153652 L25.1682567,23.7153652 L25.1682567,15.8161209 L23.8766696,15.8161209 L23.8766696,22.6133501 C23.8766696,23.2216625 24.3720729,23.7153652 24.9824805,23.7153652 Z" id="Shape" fill="#243644"></path>
                                <ellipse id="Oval" fill="#2C3F51" cx="11.5092801" cy="8.52518892" rx="8.49262793" ry="8.46347607"></ellipse>
                                <path d="M24.1066782,16.988665 L11.4119688,16.988665 L11.4119688,8.52518892 L31.4050304,8.52518892 L31.4050304,9.72418136 C31.4050304,13.7355164 28.1406765,16.988665 24.1066782,16.988665 Z" id="Shape" fill="#2C3F51"></path>
                                <path d="M23.0539462,8.52518892 L11.4119688,8.52518892 L11.4119688,0.0617128463 L30.3522984,0.0617128463 L30.3522984,1.26070529 C30.3522984,5.2720403 27.0879445,8.52518892 23.0539462,8.52518892 Z" id="Shape" fill="#2C3F51"></path>
                                <path d="M2.44163053,23.7153652 L2.25585429,23.7153652 L2.25585429,15.8161209 L3.54744146,15.8161209 L3.54744146,22.6133501 C3.54744146,23.2216625 3.05203816,23.7153652 2.44163053,23.7153652 Z" id="Shape" fill="#243644"></path>
                            </g>
                            <path d="M42.5869905,56.8639798 C42.4985256,56.8639798 42.4189072,56.802267 42.4100607,56.7141058 L41.1361665,46.7695214 C41.12732,46.6725441 41.1892454,46.5843829 41.2865568,46.5755668 C41.3838682,46.5667506 41.472333,46.6284635 41.4811795,46.7254408 L42.7550737,56.6612091 C42.7639202,56.7581864 42.7019948,56.8463476 42.6046834,56.8551637 C42.6046834,56.8639798 42.5958369,56.8639798 42.5869905,56.8639798 Z" id="Shape" fill="#0B1725"></path>
                            <path d="M40.0484497,62.4093199 C40.0484497,62.4093199 40.0484497,62.4093199 40.0484497,62.4093199 C39.9420512,62.4093199 39.8711188,62.3299748 39.8711188,62.2329975 L40.2346471,46.5491184 C40.2346471,46.4521411 40.3233125,46.372796 40.4119779,46.372796 C40.5095099,46.372796 40.5893088,46.4521411 40.5893088,46.5491184 L40.2257805,62.2329975 C40.2257805,62.3299748 40.1459816,62.4093199 40.0484497,62.4093199 Z" id="Shape" fill="#0B1725"></path>
                            <g transform="translate(24.681700, 130.125945)">
                                <path d="M8.14762299,0.0352644836 C3.68014238,0.0352644836 0.061925412,3.64105793 0.061925412,8.09319899 L16.2244903,8.09319899 C16.2333206,3.64105793 12.6151036,0.0352644836 8.14762299,0.0352644836 Z" id="Shape" fill="#ECEFF0"></path>
                                <path d="M13.9509107,7.07052897 C13.703209,7.07052897 13.5085863,6.87657431 13.5085863,6.62972292 C13.5085863,4.0465995 11.1023417,1.94836272 8.14761492,1.94836272 C7.89991327,1.94836272 7.70529055,1.75440806 7.70529055,1.50755668 C7.70529055,1.26070529 7.89991327,1.06675063 8.14761492,1.06675063 C11.5888985,1.06675063 14.393235,3.56171285 14.393235,6.62972292 C14.393235,6.86775819 14.1986123,7.07052897 13.9509107,7.07052897 Z" id="Shape" fill="#FFFFFF"></path>
                                <rect id="Rectangle-path" fill="#05457A" x="0.0707718994" y="8.09319899" width="16.1625325" height="1.41939547"></rect>
                            </g>
                            <g transform="translate(43.259324, 130.125945)">
                                <path d="M8.14762299,0.0352644836 C3.68014238,0.0352644836 0.061925412,3.64105793 0.061925412,8.09319899 L16.2244903,8.09319899 C16.2333206,3.64105793 12.6151036,0.0352644836 8.14762299,0.0352644836 Z" id="Shape" fill="#ECEFF0"></path>
                                <path d="M13.9509107,7.07052897 C13.703209,7.07052897 13.5085863,6.87657431 13.5085863,6.62972292 C13.5085863,4.0465995 11.1023417,1.94836272 8.14761492,1.94836272 C7.89991327,1.94836272 7.70529055,1.75440806 7.70529055,1.50755668 C7.70529055,1.26070529 7.89991327,1.06675063 8.14761492,1.06675063 C11.5888985,1.06675063 14.393235,3.56171285 14.393235,6.62972292 C14.393235,6.86775819 14.1986123,7.07052897 13.9509107,7.07052897 Z" id="Shape" fill="#FFFFFF"></path>
                                <rect id="Rectangle-path" fill="#05457A" x="0.0707718994" y="8.09319899" width="16.1625325" height="1.41939547"></rect>
                            </g>
                            <path d="M33.8732003,5.49244332 C33.6962706,5.49244332 33.5104944,5.4395466 33.3512576,5.32493703 C32.9531657,5.03400504 32.8735473,4.48740554 33.1566349,4.0906801 C34.3686036,2.43324937 36.3148309,1.44584383 38.3760624,1.44584383 L52.3623591,1.44584383 C52.8489159,1.44584383 53.2470078,1.84256927 53.2470078,2.32745592 C53.2470078,2.81234257 52.8489159,3.20906801 52.3623591,3.20906801 L38.3760624,3.20906801 C36.8810061,3.20906801 35.4655681,3.9231738 34.5897658,5.13098237 C34.4128361,5.36901763 34.1474415,5.49244332 33.8732003,5.49244332 Z" id="Shape" fill="#3D5366"></path>
                            <path d="M47.6825672,11.3639798 L42.233131,11.3639798 C41.7465742,11.3639798 41.3484822,10.9672544 41.3484822,10.4823678 C41.3484822,9.99748111 41.7465742,9.60075567 42.233131,9.60075567 L47.6825672,9.60075567 C48.169124,9.60075567 48.567216,9.99748111 48.567216,10.4823678 C48.567216,10.9672544 48.169124,11.3639798 47.6825672,11.3639798 Z" id="Shape" fill="#3D5366"></path>
                            <path d="M29.4676496,56.4672544 C29.0253252,56.4672544 28.6360798,56.1322418 28.5918474,55.6826196 L28.0699046,50.8337531 C28.0168257,50.3488665 28.3706852,49.9168766 28.857242,49.8639798 C29.3437988,49.8110831 29.7772767,50.163728 29.8303556,50.6486146 L30.3522984,55.4974811 C30.4053773,55.9823678 30.0515178,56.4143577 29.564961,56.4672544 C29.529575,56.4584383 29.5030356,56.4672544 29.4676496,56.4672544 Z" id="Shape" fill="#269C92"></path>
                            <path d="M28.6183868,48.5944584 C28.1760624,48.5944584 27.786817,48.2594458 27.7425846,47.8098237 L27.6364267,46.8400504 C27.5833478,46.3551637 27.9372073,45.9231738 28.4237641,45.8702771 C28.9103209,45.8173804 29.3437988,46.1700252 29.3968777,46.6549118 L29.5030356,47.6246851 C29.5561145,48.1095718 29.202255,48.5415617 28.7156982,48.5944584 C28.6803122,48.5944584 28.6537728,48.5944584 28.6183868,48.5944584 Z" id="Shape" fill="#269C92"></path>
                            <path d="M63.685863,88.2758186 C63.4116219,88.2758186 63.1373807,88.1435768 62.960451,87.9055416 C61.9607979,86.5037783 60.6426713,85.604534 59.2626193,85.384131 C58.0506505,85.1901763 56.8386817,85.5075567 55.7417173,86.3010076 L55.4497832,86.5125945 C55.0516912,86.8035264 54.503209,86.7153652 54.2112749,86.3186398 C53.9193408,85.9219144 54.0078057,85.3753149 54.4058977,85.0843829 L54.6978317,84.872796 C56.1840416,83.7972292 57.8560278,83.3740554 59.5457069,83.6473552 C61.3946227,83.9471033 63.1196878,85.1020151 64.4024284,86.8916877 C64.685516,87.2884131 64.5882047,87.8350126 64.1901127,88.1171285 C64.0397225,88.2229219 63.8627927,88.2758186 63.685863,88.2758186 Z" id="Shape" fill="#152E48"></path>
                            <path d="M17.4275802,88.2758186 C17.2506505,88.2758186 17.0737207,88.2229219 16.914484,88.1083123 C16.516392,87.8261965 16.4190807,87.279597 16.7021683,86.8828715 C17.9849089,85.093199 19.7011275,83.9382872 21.5588899,83.638539 C23.2397225,83.3652393 24.9205551,83.7884131 26.406765,84.8639798 L26.698699,85.0755668 C27.096791,85.3664987 27.1764094,85.9130982 26.8933218,86.3098237 C26.6013877,86.7065491 26.0529055,86.7858942 25.6548135,86.5037783 L25.3628794,86.2921914 C24.265915,85.4987406 23.0539462,85.1813602 21.8419775,85.3753149 C20.4619254,85.5957179 19.1526453,86.4949622 18.1441457,87.8967254 C17.9760624,88.1435768 17.7018213,88.2758186 17.4275802,88.2758186 Z" id="Shape" fill="#152E48"></path>
                            <path d="M60.2268864,70.6347607 L58.7052905,70.6347607 L58.7052905,68.3425693 C59.5457069,68.3425693 60.2268864,69.0214106 60.2268864,69.8589421 L60.2268864,70.6347607 Z" id="Shape" fill="#FFD8C9"></path>
                            <path d="M25.699046,76.0831234 L20.8688638,76.0831234 L20.8688638,70.6347607 L25.699046,70.6347607 C26.5394623,70.6347607 27.2294883,71.313602 27.2294883,72.1599496 L27.2294883,74.5579345 C27.2294883,75.4042821 26.5394623,76.0831234 25.699046,76.0831234 Z" id="Shape" fill="#FFD8C9"></path>
                            <path d="M55.9982654,76.0831234 L60.8284475,76.0831234 L60.8284475,70.6347607 L55.9982654,70.6347607 C55.1578491,70.6347607 54.4678231,71.313602 54.4678231,72.1599496 L54.4678231,74.5579345 C54.4678231,75.4042821 55.1490026,76.0831234 55.9982654,76.0831234 Z" id="Shape" fill="#FFD8C9"></path>
                            <path d="M21.4969644,70.6347607 L23.0185603,70.6347607 L23.0185603,68.3425693 C22.178144,68.3425693 21.4969644,69.0214106 21.4969644,69.8589421 L21.4969644,70.6347607 Z" id="Shape" fill="#FFD8C9"></path>
                            <path d="M74.885516,63.7934509 L66.9502168,66.3942065 L62.6419775,67.7871537 C62.3500434,67.884131 62.1554206,68.1486146 62.1554206,68.4571788 L62.1554206,75.7392947 L63.1196878,68.836272 L74.885516,63.7934509 Z" id="Shape" fill="#177C73"></path>
                            <path d="M18.4537728,68.6775819 L19.4003469,75.0516373 L19.3915004,68.4836272 C19.3915004,68.1662469 19.1880312,67.8929471 18.8784042,67.8047859 L14.5347788,66.5440806 L6.64371206,64.0667506 L18.4537728,68.6775819 Z" id="Shape" fill="#18B286"></path>
                            <path d="M79.0079792,72.4861461 C81.0957502,71.8866499 81.9007806,69.3652393 80.547268,67.6725441 L79.1229835,65.8916877 C79.821856,68.5277078 78.4948829,71.2783375 75.9824805,72.3803526 C74.1424111,73.1826196 71.9484822,74.1435768 69.8341717,75.0692695 L79.0079792,72.4861461 Z" id="Shape" fill="#008E73"></path>
                            <path d="M7.87337381,73.3765743 C3.865915,71.8602015 1.89314831,67.3463476 3.52090199,63.3879093 L1.00849957,66.3148615 C-0.884648742,68.5188917 0.159236774,71.9395466 2.96357329,72.7153652 L14.5259324,75.8979849 L7.87337381,73.3765743 Z" id="Shape" fill="#177C73"></path>
                            <ellipse id="Oval" fill="#177C73" cx="3.14050304" cy="69.1007557" rx="2.04353859" ry="2.03652393"></ellipse>
                            <ellipse id="Oval" fill="#177C73" cx="78.5125759" cy="69.5415617" rx="2.04353859" ry="2.03652393"></ellipse>
                            <ellipse id="Oval" fill="#152E48" cx="52.5304423" cy="126.079345" rx="2.4593235" ry="2.45088161"></ellipse>
                            <ellipse id="Oval" fill="#152E48" cx="30.219601" cy="126.608312" rx="2.4593235" ry="2.45088161"></ellipse>
                            <ellipse id="Oval" fill="#152E48" cx="52.7958369" cy="121.953401" rx="1.09696444" ry="1.09319899"></ellipse>
                            <ellipse id="Oval" fill="#152E48" cx="29.909974" cy="122.482368" rx="1.09696444" ry="1.09319899"></ellipse>
                            <ellipse id="Oval" fill="#177C73" cx="77.5483088" cy="66.2707809" rx="1" ry="1"></ellipse>
                            <ellipse id="Oval" fill="#177C73" cx="75.3720729" cy="71.2342569" rx="1" ry="1"></ellipse>
                            <ellipse id="Oval" fill="#177C73" cx="4.68863833" cy="65.8652393" rx="1" ry="1"></ellipse>
                            <ellipse id="Oval" fill="#177C73" cx="6.28985256" cy="70.4584383" rx="1" ry="1"></ellipse>
                            <path d="M52.6985256,102.293451 C52.6631396,102.293451 52.6277537,102.293451 52.6012142,102.284635 C52.1146574,102.231738 51.7696444,101.790932 51.8227233,101.306045 L52.6985256,93.7065491 C52.7516045,93.2216625 53.1939289,92.8778338 53.6804857,92.9307305 C54.1670425,92.9836272 54.5120555,93.4244332 54.4589766,93.9093199 L53.5831743,101.508816 C53.5212489,101.958438 53.14085,102.293451 52.6985256,102.293451 Z" id="Shape" fill="#152E48"></path>
                            <path d="M28.874935,96.9685139 C28.45915,96.9685139 28.0875976,96.6775819 28.0079792,96.2544081 L27.5656548,93.9798489 C27.4683435,93.5037783 27.786817,93.0365239 28.2645273,92.9483627 C28.7422376,92.8513854 29.2111015,93.1687657 29.2995663,93.6448363 L29.7418907,95.9193955 C29.8392021,96.395466 29.5207285,96.8627204 29.0430182,96.9508816 C28.9899393,96.9596977 28.9280139,96.9685139 28.874935,96.9685139 Z" id="Shape" fill="#152E48"></path>
                        </g>
                        <g transform="translate(20.435386, 57.304786)">
                            <path d="M40.7646141,24.8702771 L0.0707718994,24.8702771 L0.0707718994,0.890428212 C0.0707718994,0.440806045 0.433477884,0.0793450882 0.884648742,0.0793450882 L39.9507372,0.0793450882 C40.4019081,0.0793450882 40.7646141,0.440806045 40.7646141,0.890428212 L40.7646141,24.8702771 Z" id="Shape" fill="#D4D6D6"></path>
                            <polygon id="Shape" fill="#DFE4E5" points="40.7646141 11.3816121 39.0041631 23.4244332 14.4993929 24.8702771 40.7646141 24.8702771"></polygon>
                            <ellipse id="Oval" fill="#DFE4E5" cx="38.1372073" cy="22.4899244" rx="1.88430182" ry="1.87783375"></ellipse>
                            <ellipse id="Oval" fill="#DFE4E5" cx="34.5366869" cy="22.4899244" rx="1" ry="1"></ellipse>
                            <ellipse id="Oval" fill="#DFE4E5" cx="37.4737207" cy="18.4256927" rx="1.31812663" ry="1.31360202"></ellipse>
                            <ellipse id="Oval" fill="#FFFFFF" cx="6.57294016" cy="3.09445844" rx="1" ry="1"></ellipse>
                            <ellipse id="Oval" fill="#FFFFFF" cx="2.44163053" cy="5.92443325" rx="1" ry="1"></ellipse>
                        </g>
                    </g>
                    <g id="Balloon_Dialogue_and_Dollar_Symbol" transform="translate(65.375542, 3.173804)">
                        <g id="Balloon_Dialogue_4_" fill="#0B1725">
                            <polygon id="XMLID_7_" points="6.08638335 18.593199 0.0796183868 26.0516373 10.1292281 26.0516373"></polygon>
                            <ellipse id="XMLID_6_" cx="20.4707719" cy="16.115869" rx="16.0917606" ry="16.0365239"></ellipse>
                        </g>
                        <g id="Dollar_Symbol" transform="translate(13.712056, 6.612091)" fill="#FFFFFF">
                            <path d="M3.75091067,12.3866499 C4.12246314,13.4798489 5.00711188,14.3438287 7.20104076,14.3438287 C8.82879445,14.3438287 9.55420642,13.6826196 9.55420642,12.8715365 C9.55420642,12.0075567 9.12072853,11.5138539 5.91830009,10.8526448 C1.84006938,10.0062972 0.433477884,8.36649874 0.433477884,6.23299748 C0.433477884,3.87027708 2.18508239,1.56926952 6.64371206,1.56926952 C11.3058109,1.56926952 12.9601041,4.05541562 13.048569,5.93324937 L9.35073721,5.93324937 C9.12957502,5.2720403 8.77571552,4.26700252 6.4048569,4.26700252 C4.56478751,4.26700252 4.18438855,5.05163728 4.18438855,5.62468514 C4.18438855,6.4534005 4.76825672,6.91183879 7.42220295,7.4231738 C12.4470078,8.40176322 13.4820468,10.2178841 13.4820468,12.3778338 C13.4820468,14.872796 11.5181266,17.059194 6.83833478,17.0768262 C2.54778838,17.0944584 0.23885516,14.7581864 0.0442324371,12.3778338 L3.75091067,12.3778338 L3.75091067,12.3866499 Z M5.10442324,3.04156171 L5.10442324,0.0440806045 L8.25377277,0.0440806045 L8.25377277,3.04156171 L5.10442324,3.04156171 Z M5.35212489,18.9634761 L5.35212489,15.5780856 L8.5103209,15.5780856 L8.5103209,18.9634761 L5.35212489,18.9634761 Z" id="XMLID_2_"></path>
                        </g>
                    </g>
                </g>
            </g>
        </g>
    </g>
</svg>