<?xml version="1.0" encoding="UTF-8"?>
<svg width="108px" height="120px" viewBox="0 0 108 120" version="1.1" xmlns="http://www.w3.org/2000/svg" xmlns:xlink="http://www.w3.org/1999/xlink">
    <!-- Generator: Sketch 49.1 (51147) - http://www.bohemiancoding.com/sketch -->
    <title>test4</title>
    <desc>Created with Sketch.</desc>
    <defs></defs>
    <g id="Page-1" stroke="none" stroke-width="1" fill="none" fill-rule="evenodd">
        <g id="Taager_Dark" transform="translate(-795.000000, -1459.000000)">
            <g id="Group-2" transform="translate(111.000000, 1444.000000)">
                <g id="test4" transform="translate(684.000000, 15.000000)">
                    <g id="XMLID_15_" fill-rule="nonzero">
                        <g id="XMLID_219_" transform="translate(0.000000, 13.562654)">
                            <path d="M104.635102,19.0761671 L103.180408,18.9140049 L103.180408,88.0982801 L101.828571,87.8624079 L99.8889796,95.955774 C99.8889796,95.955774 107.867755,95.7346437 107.867755,88.9385749 L107.867755,24.8845209 C107.867755,20.5208845 105.810612,19.3415233 104.635102,19.0761671 Z" id="XMLID_35_" fill="#7BF6EC"></path>
                            <path d="M100.315102,19.2235872 L21.482449,1.91646192 L21.482449,1.93120393 C19.9983673,1.5036855 18.4408163,1.26781327 16.8244898,1.26781327 C7.56734694,1.26781327 0.0734693878,5.07125307 0.0734693878,14.3587224 C0.0734693878,23.6461916 7.58204082,31.1646192 16.8244898,31.1646192 C18.4408163,31.1646192 19.9983673,30.9287469 21.482449,30.5012285 L21.482449,73.1793612 C21.482449,76.1719902 23.5689796,78.7665848 26.4930612,79.3857494 L97.684898,95.8230958 C101.622857,96.6633907 105.325714,93.6412776 105.325714,89.6167076 L105.325714,25.4447174 C105.325714,22.4373464 103.239184,19.8574939 100.315102,19.2235872 Z" id="XMLID_36_" fill="#106760"></path>
                            <path d="M84.6661224,30.4864865 L84.2693878,30.3685504 L84.2693878,98.5798526 L82.917551,98.3439803 L80.9779592,106.31941 C80.9779592,106.31941 88.9567347,106.09828 88.9567347,99.4054054 L88.9567347,36.2506143 C88.9567347,33.5970516 87.2081633,31.2530713 84.6661224,30.4864865 Z" id="XMLID_37_" fill="#7BF6EC"></path>
                            <path d="M81.4922449,31.0909091 L5.37795918,14.1523342 L2.99755102,5.11547912 C0.132244898,9.61179361 0.0587755102,13.017199 0.0587755102,13.017199 L0.0587755102,82.6584767 C0.0587755102,85.6511057 2.14530612,88.2457002 5.06938776,88.8648649 L78.8473469,106.17199 C82.7853061,107.012285 86.4881633,103.990172 86.4881633,99.965602 L86.4881633,37.2972973 C86.5028571,34.3046683 84.4163265,31.7100737 81.4922449,31.0909091 Z" id="XMLID_38_" fill="#29B6AB"></path>
                            <path d="M104.635102,19.0761671 L21.3795918,0.707616708 C18,0.0147420147 14.7085714,-0.117936118 11.6081633,0.339066339 C7.94938776,0.86977887 4.89306122,2.28501229 2.99755102,5.14496314 C1.1755102,7.88697789 1.49877551,10.0540541 2.10122449,11.3808354 C4.32,16.3194103 13.6653061,17.8083538 14.9877551,18 L83.6522449,33.3022113 C83.6522449,33.3022113 86.3853061,33.7886978 86.517551,38.0786241 C86.517551,38.0786241 88.3983673,31.6363636 84.5632653,30.4864865 C84.475102,30.4422604 84.3722449,30.4127764 84.2693878,30.3980344 L15.5461224,15.0515971 C15.5167347,15.036855 15.4726531,15.036855 15.4432653,15.036855 C13.1069388,14.7125307 6.14204082,13.1203931 4.80489796,10.1425061 C4.64326531,9.78869779 4.17306122,8.72727273 5.46612245,6.78132678 C6.89142857,4.64373464 9.21306122,3.68550369 12.0195918,3.27272727 C14.7820408,2.87469287 17.7355102,2.99262899 20.7771429,3.61179361 L103.180408,21.8181818 L103.253878,21.8329238 C103.533061,21.8918919 104.59102,22.2014742 104.987755,23.3955774 C105.31102,24.3390663 105.355102,22.7321867 105.340408,21.6117936 C105.560816,21.4054054 105.707755,21.1400491 105.781224,20.8304668 C105.957551,20.034398 105.443265,19.2530713 104.635102,19.0761671 Z" id="XMLID_39_" fill="#7BF6EC"></path>
                        </g>
                        <g id="XMLID_214_" transform="translate(50.546939, 66.633907)">
                            <g id="XMLID_40_">
                                <path d="M43.0677551,6.94348894 L15.9134694,0.324324324 C13.8122449,-0.132678133 11.755102,0.117936118 9.9477551,0.884520885 L9.93306122,0.86977887 L9.71265306,0.987714988 C9.47755102,1.09090909 9.24244898,1.20884521 9.02204082,1.34152334 L5.36326531,3.1990172 L5.96571429,3.95085995 C4.67265306,5.61670762 3.87918367,7.72481572 3.87918367,10.039312 L3.87918367,10.6437346 C3.87918367,15.3169533 7.11183673,19.3415233 11.6522449,20.3439803 L38.88,26.992629 L40.4816327,28.982801 C40.4669388,28.997543 42.8620408,27.8034398 43.6995918,27.3759214 C43.7730612,27.3464373 43.8318367,27.3169533 43.8906122,27.2727273 C43.9493878,27.2432432 43.9934694,27.2285012 43.9934694,27.2285012 L43.9934694,27.2137592 C44.9338776,26.6535627 45.6097959,25.6363636 45.6097959,24.4275184 L45.6097959,10.1425061 C45.6244898,8.59459459 44.5518367,7.26781327 43.0677551,6.94348894 Z" id="XMLID_41_" fill="#7BF6EC"></path>
                                <path d="M37.8808163,29.5282555 L7.86122449,22.2751843 C3.32081633,21.2727273 0.0881632653,17.2334152 0.0881632653,12.5749386 L0.0881632653,11.970516 C0.0881632653,5.61670762 5.93632653,0.899262899 12.122449,2.27027027 L39.2767347,8.88943489 C40.7608163,9.21375921 41.8187755,10.5405405 41.8187755,12.0737101 L41.8187755,26.3587224 C41.8187755,28.4226044 39.9085714,29.970516 37.8808163,29.5282555 Z" id="XMLID_217_" fill="#0B1725"></path>
                            </g>
                            <ellipse id="XMLID_42_" fill="#7BF6EC" cx="10.2269388" cy="12.6339066" rx="4.68734694" ry="4.7027027"></ellipse>
                        </g>
                        <g id="XMLID_17_" transform="translate(26.302041, 0.000000)">
                            <g id="XMLID_43_">
                                <path d="M47.3142857,21.8034398 C46.6236735,14.4471744 43.082449,8.15233415 38.1012245,4.26044226 C36.484898,2.99262899 34.7216327,1.99017199 32.8555102,1.26781327 C32.1942857,1.01719902 31.5183673,0.796068796 30.8277551,0.619164619 C29.8285714,0.353808354 28.8,0.191646192 27.7567347,0.103194103 C27.1395918,0.058968059 26.522449,0.0442260442 25.8906122,0.058968059 L25.8759184,0.058968059 L25.684898,0.0737100737 C25.317551,0.0884520885 24.964898,0.0884520885 24.597551,0.132678133 C24.2302041,0.162162162 23.877551,0.206388206 23.5102041,0.265356265 L18.4114286,0.707616708 L18.5142857,1.81326781 C10.5208163,5.61670762 5.34857143,15.1253071 6.33306122,25.6805897 C7.0677551,33.5528256 11.0644898,40.2162162 16.6187755,44.004914 C17.515102,44.6240786 18.4408163,45.1547912 19.4106122,45.6117936 C20.0571429,45.9213759 20.7183673,46.1867322 21.3942857,46.4226044 C21.835102,46.5700246 22.2906122,46.7027027 22.7314286,46.8206388 L22.8342857,47.9115479 L31.9885714,47.041769 L32.2971429,46.7027027 C41.8922449,43.990172 48.4163265,33.5528256 47.3142857,21.8034398 Z" id="XMLID_213_" fill="#F99D00"></path>
                                <g id="XMLID_44_" transform="translate(0.000000, 0.589681)">
                                    <g id="XMLID_45_">
                                        <path d="M41.1281633,21.8034398 C42.3477551,34.8353808 34.1779592,46.2751843 22.8636735,47.3513514 C22.2318367,47.4103194 21.6,47.4398034 20.9828571,47.4250614 C18.9991837,47.4103194 17.0742857,47.0565111 15.237551,46.4226044 C14.5616327,46.1867322 13.9004082,45.9213759 13.2538776,45.6117936 C12.2840816,45.1547912 11.3583673,44.6093366 10.4620408,44.004914 C4.92244898,40.2014742 0.925714286,33.5380835 0.176326531,25.6805897 C-1.04326531,12.6486486 7.12653061,1.20884521 18.4408163,0.132678133 C19.4987755,0.0294840295 20.5567347,0.0294840295 21.5853061,0.117936118 C22.6285714,0.206388206 23.6571429,0.368550369 24.6563265,0.633906634 C25.3469388,0.810810811 26.0228571,1.03194103 26.6840816,1.28255528 C28.5502041,1.99017199 30.3134694,3.00737101 31.9297959,4.27518428 C36.9110204,8.15233415 40.437551,14.4471744 41.1281633,21.8034398 Z" id="XMLID_212_" fill="#FFCC00"></path>
                                        <g id="XMLID_46_" opacity="0.31" transform="translate(6.318367, 7.371007)" fill="#FFFFFF">
                                            <path d="M12.8130612,0.0737100737 C5.02530612,0.810810811 -0.631836735,8.71253071 0.220408163,17.6904177 C1.05795918,26.6683047 8.08163265,33.3759214 15.8693878,32.6388206 C23.6571429,31.9017199 29.3142857,24 28.4620408,15.022113 C27.6244898,6.04422604 20.6008163,-0.663390663 12.8130612,0.0737100737 Z" id="XMLID_210_"></path>
                                        </g>
                                        <g id="XMLID_47_" transform="translate(5.289796, 6.191646)">
                                            <path d="M2.11591837,18.972973 C1.20489796,9.31695332 7.25877551,0.855036855 15.6195918,0.0737100737 C15.7077551,0.058968059 15.7959184,0.0737100737 15.8693878,0.058968059 C15.1640816,0.0147420147 14.4440816,-4.19109192e-15 13.7240816,0.0737100737 C5.36326531,0.86977887 -0.690612245,9.33169533 0.220408163,18.972973 C1.11673469,28.5257985 8.49306122,35.6461916 16.7510204,35.027027 C9.28653061,34.5257985 2.93877551,27.7886978 2.11591837,18.972973 Z" id="XMLID_48_" fill="#E28B00"></path>
                                            <path d="M30.5191837,16.1130221 C29.6963265,7.2972973 23.3485714,0.56019656 15.8693878,0.058968059 C15.7812245,0.058968059 15.7077551,0.058968059 15.6195918,0.0737100737 C7.25877551,0.86977887 1.20489796,9.33169533 2.11591837,18.972973 C2.93877551,27.7886978 9.28653061,34.5257985 16.7657143,35.027027 C16.8538776,35.027027 16.9273469,35.027027 17.0155102,35.012285 C25.3763265,34.2309582 31.4302041,25.7690418 30.5191837,16.1130221 Z" id="XMLID_49_" fill="#F99D00"></path>
                                        </g>
                                    </g>
                                </g>
                                <g id="XMLID_50_" transform="translate(14.253061, 13.415233)" fill="#FFD400">
                                    <path d="M8.12571429,17.4545455 L8.19918367,19.7837838 L5.40734694,19.8869779 L5.33387755,17.6609337 C3.35020408,17.6019656 1.41061224,17.1007371 0.191020408,16.3636364 L1.5722449,12.7076167 C2.90938776,13.4742015 4.67265306,13.9459459 6.20081633,13.8869779 C7.52326531,13.8427518 7.99346939,13.5331695 7.97877551,13.031941 C7.92,11.1891892 0.293877551,12.9434889 0.11755102,7.47420147 C0.0293877551,5.1007371 1.58693878,3.06633907 4.81959184,2.46191646 L4.74612245,0.176904177 L7.53795918,0.0737100737 L7.61142857,2.31449631 C9.08081633,2.41769042 10.5208163,2.75675676 11.6816327,3.39066339 L10.4032653,7.01719902 C9.00734694,6.32432432 7.71428571,6.01474201 6.49469388,6.05896806 C5.12816327,6.1031941 4.70204082,6.54545455 4.71673469,7.04668305 C4.7755102,8.8009828 12.4016327,7.07616708 12.5779592,12.4864865 C12.6661224,14.7567568 11.1820408,16.7764128 8.12571429,17.4545455 Z" id="XMLID_23_"></path>
                                </g>
                            </g>
                        </g>
                    </g>
                    <path d="M69.7812245,4.42260442 L31.4302041,42.8992629" id="Shape" stroke="#EC1C24" stroke-width="2.94840295"></path>
                </g>
            </g>
        </g>
    </g>
</svg>